<?xml version="1.0" standalone="no"?>
<!DOCTYPE svg PUBLIC "-//W3C//DTD SVG 20010904//EN"
 "http://www.w3.org/TR/2001/REC-SVG-20010904/DTD/svg10.dtd">
<svg version="1.0" xmlns="http://www.w3.org/2000/svg"
 width="301.000000pt" height="301.000000pt" viewBox="0 0 301.000000 301.000000"
 preserveAspectRatio="xMidYMid meet">
<metadata>
Created by potrace 1.11, written by Peter Selinger 2001-2013
</metadata>
<g transform="translate(0.000000,301.000000) scale(0.100000,-0.100000)"
fill="#000000" stroke="none">
<path d="M779 2456 c-2 -2 -28 -7 -58 -10 -134 -16 -337 -80 -449 -142 -70
-38 -198 -137 -212 -164 -12 -22 14 -47 64 -61 43 -12 64 -2 151 68 120 96
312 175 465 191 85 9 340 9 410 0 123 -16 223 -59 270 -117 84 -101 49 -263
-83 -385 -113 -104 -229 -170 -432 -244 -193 -71 -276 -90 -371 -88 -46 2 -87
5 -90 9 -3 3 -9 21 -14 41 -7 31 1 52 70 193 42 87 98 189 125 227 51 75 58
105 30 136 -42 47 -66 22 -149 -153 -30 -65 -66 -132 -80 -150 -13 -17 -38
-60 -54 -95 -38 -79 -124 -212 -138 -212 -6 0 -48 11 -94 25 -80 24 -130 31
-130 19 0 -22 32 -49 105 -89 l85 -46 -16 -37 c-9 -20 -20 -47 -25 -60 -5 -12
-18 -42 -29 -66 -11 -25 -20 -47 -20 -51 0 -3 -12 -29 -26 -58 -14 -28 -32
-85 -40 -125 -7 -40 -17 -84 -20 -97 -5 -21 -2 -25 15 -25 12 0 21 4 21 9 0 5
36 74 81 152 45 79 106 192 136 252 29 59 58 107 63 107 8 0 35 -65 55 -130
41 -135 196 -339 330 -435 152 -108 266 -141 518 -149 90 -3 103 -1 158 25 54
26 80 51 66 65 -3 3 -15 1 -26 -5 -43 -24 -190 -32 -305 -18 -100 11 -237 60
-314 111 -106 69 -219 196 -266 301 -28 61 -81 224 -74 230 2 2 33 7 68 10 76
7 359 83 457 123 93 38 288 146 343 190 119 96 219 255 225 359 6 96 -39 185
-118 233 -91 56 -226 104 -352 124 -45 8 -320 17 -326 12z"/>
<path d="M2728 2344 c-2 -2 -21 -4 -41 -6 -45 -3 -53 -10 -116 -110 -27 -42
-65 -93 -84 -115 -19 -21 -76 -99 -128 -173 -52 -74 -121 -164 -155 -200 -33
-36 -76 -86 -96 -112 -48 -64 -87 -107 -133 -147 l-39 -34 -7 24 c-6 26 -3
158 6 199 2 14 10 50 16 80 15 74 77 308 91 345 6 17 17 37 24 45 7 8 18 36
24 61 10 40 9 49 -10 81 -32 55 -56 55 -88 1 -15 -25 -39 -64 -53 -87 -49 -77
-353 -575 -525 -861 -43 -71 -98 -153 -121 -182 -45 -55 -47 -79 -9 -89 58
-14 118 42 211 196 21 36 71 108 111 160 39 52 104 149 144 215 40 66 82 131
92 145 l20 25 -6 -80 c-4 -44 -9 -107 -13 -140 -14 -131 1 -180 65 -214 34
-18 87 -16 120 5 16 10 106 114 199 229 236 294 254 318 287 365 15 22 30 39
32 37 3 -2 -11 -51 -30 -108 -29 -88 -78 -246 -91 -299 -11 -42 -47 -201 -55
-245 -17 -87 -18 -92 -25 -142 -4 -26 -9 -59 -11 -73 -6 -35 -5 -280 0 -309 3
-13 6 -42 8 -65 2 -47 36 -118 70 -146 32 -26 123 -60 163 -60 71 0 181 85
325 252 78 90 113 142 108 163 -2 11 -39 -17 -129 -97 -138 -124 -266 -219
-317 -236 -64 -22 -102 11 -126 110 -28 115 -22 276 20 508 46 249 89 380 310
944 32 81 34 90 20 111 -13 20 -49 38 -58 29z"/>
</g>
</svg>
