<?xml version="1.0" encoding="utf-8"?>
<!-- Generator: Adobe Illustrator 19.0.0, SVG Export Plug-In . SVG Version: 6.00 Build 0)  -->
<svg version="1.1" id="Layer_1" xmlns="http://www.w3.org/2000/svg" xmlns:xlink="http://www.w3.org/1999/xlink" x="0px" y="0px"
	 viewBox="-415 217 128 128" style="enable-background:new -415 217 128 128;" xml:space="preserve">
<style type="text/css">
	.st0{fill:#FFFFFF;}
	.st1{fill:#5B4282;}
</style>
<rect x="-385" y="240.2" class="st0" width="69.5" height="76.8"/>
<path class="st1" d="M-339.3,282.6c-2.3-0.8-5.7-0.6-10.1-0.6H-367v23h18.8c2.9,0,5-0.3,6.2-0.5c2.1-0.4,3.9-1.1,5.3-2
	c1.4-0.9,2.6-2.2,3.5-3.9c0.9-1.7,1.4-3.6,1.4-5.8c0-2.6-0.7-4.5-2-6.4C-335.1,284.4-337,283.4-339.3,282.6z M-341.7,272.1
	c2.3-0.7,4.1-1.9,5.2-3.5c1.2-1.6,1.8-3.6,1.8-6c0-2.3-0.5-4.3-1.6-6.1c-1.1-1.7-2.7-2.4-4.7-3.1c-2-0.6-5.5-0.4-10.5-0.4H-367v20
	h16.6C-346.4,273-343.5,272.6-341.7,272.1z M-289,235.6c0-9.2-7.4-16.6-16.6-16.6h-91.8c-9.2,0-16.6,7.4-16.6,16.6v91.8
	c0,9.2,7.4,16.6,16.6,16.6h91.8c9.2,0,16.6-7.4,16.6-16.6V235.6z M-324.4,301.7c-1.4,2.8-3,4.9-5.1,6.4c-2,1.5-4.5,2.8-7.5,3.5
	c-3,0.8-6.7,1.3-11.1,1.3H-376v-69h27.4c5.3,0,9.5,0.6,12.7,2c3.2,1.4,5.7,3.5,7.5,6.4c1.8,2.9,2.7,5.9,2.7,9.1
	c0,2.9-0.8,5.7-2.4,8.3c-1.6,2.6-4,4.7-7.2,6.3c4.2,1.2,7.4,3.3,9.6,6.2c2.2,2.9,3.4,6.4,3.4,10.4C-322.4,296-323.1,299-324.4,301.7
	z"/>
</svg>
