<?xml version="1.0" encoding="utf-8"?>
<!-- Generator: Adobe Illustrator 19.0.0, SVG Export Plug-In . SVG Version: 6.00 Build 0)  -->
<svg version="1.1" id="Layer_1" xmlns="http://www.w3.org/2000/svg" xmlns:xlink="http://www.w3.org/1999/xlink" x="0px" y="0px"
	 viewBox="-418 237.5 74 62" style="enable-background:new -418 237.5 74 62;" xml:space="preserve">
<style type="text/css">
	.st0{fill:#F5F5F5;}
</style>
<title>03</title>
<g>
	<path class="st0" d="M-344.9,265.8L-344.9,265.8l-17-16c-1.2-1.1-3.1-1.1-4.2,0.2c-1.1,1.2-1.1,3.1,0.2,4.2l14.7,13.8l-14.8,13.8
		c-1.2,1.1-1.3,3-0.2,4.2c0.6,0.6,1.3,0.9,2.2,1c0.8,0,1.5-0.3,2.1-0.8l17-16C-343.7,269-343.7,267-344.9,265.8z"/>
	<path class="st0" d="M-410.6,268.1l14.6-12.9c1.1-1.3,0.9-3.2-0.4-4.2c-1-0.9-2.5-0.9-3.6-0.2l-17,15c-0.6,0.6-1,1.4-1,2.2
		s0.3,1.6,0.9,2.2l17,16c0.6,0.5,1.3,0.8,2.1,0.8c1.7,0,3-1.4,3-3c0-0.8-0.4-1.6-1-2.2L-410.6,268.1z"/>
	<path class="st0" d="M-376.6,237.5c-1.6-0.2-3.1,1-3.4,2.6l-8,56c-0.2,1.6,1,3.1,2.6,3.4h0.4c1.5,0,2.8-1.1,3-2.6l8-56
		C-373.8,239.3-375,237.8-376.6,237.5z"/>
</g>
</svg>
