<?xml version="1.0" encoding="utf-8"?>
<!-- Generator: Adobe Illustrator 19.0.0, SVG Export Plug-In . SVG Version: 6.00 Build 0)  -->
<svg version="1.1" id="Layer_1" xmlns="http://www.w3.org/2000/svg" xmlns:xlink="http://www.w3.org/1999/xlink" x="0px" y="0px"
	 viewBox="-830.3 437 110.5 125.3" style="enable-background:new -830.3 437 110.5 125.3;" xml:space="preserve">
<style type="text/css">
	.st0{fill:#DBDBDB;}
	.st1{fill:#3B3D3E;}
</style>
<path class="st0" d="M-820.2,549.8L-830.3,437h110.5l-10.1,112.8l-45.2,12.5C-775.1,562.3-820.2,549.8-820.2,549.8z"/>
<path class="st0" d="M-775,552.8l36.6-10.1l8.6-96.4H-775V552.8z"/>
<path class="st1" d="M-775,487.1h18.3l1.3-14.2H-775v-13.8h34.7l-0.3,3.7l-3.4,38.1h-31C-775,501-775,487.1-775,487.1z"/>
<path class="st1" d="M-774.9,523L-774.9,523l-15.5-4.1l-1-11h-13.9l1.9,21.7l28.3,7.9h0.1C-774.9,537.4-774.9,523-774.9,523z"/>
<path class="st1" d="M-757.9,500.4l-1.7,18.5l-15.4,4.2v14.4l28.4-7.9l0.2-2.3l2.4-26.9C-744,500.4-757.9,500.4-757.9,500.4z"/>
<path class="st1" d="M-775,459.1v13.8h-33.4l-0.3-3.1l-0.6-7l-0.3-3.7C-809.6,459.1-775,459.1-775,459.1z M-775,487.1v13.8h-15.2
	l-0.3-3.1l-0.6-7l-0.3-3.7H-775L-775,487.1z"/>
</svg>
