<?xml version="1.0" encoding="utf-8"?>
<!-- Generator: Adobe Illustrator 19.0.0, SVG Export Plug-In . SVG Version: 6.00 Build 0)  -->
<svg version="1.1" id="Layer_1" xmlns="http://www.w3.org/2000/svg" xmlns:xlink="http://www.w3.org/1999/xlink" x="0px" y="0px"
	 viewBox="-406.2 218.4 110.5 125.3" style="enable-background:new -406.2 218.4 110.5 125.3;" xml:space="preserve">
<style type="text/css">
	.st0{fill:#F5F5F5;}
	.st1{fill:#252627;}
</style>
<path class="st0" d="M-396.2,331.1l-10.1-112.8h110.5l-10.1,112.8l-45.2,12.5C-351.1,343.6-396.2,331.1-396.2,331.1z"/>
<path class="st0" d="M-351,334.1l36.6-10.1l8.6-96.4H-351C-351,227.6-351,334.1-351,334.1z"/>
<path class="st1" d="M-351,268.4h18.3l1.3-14.2H-351v-13.8h34.7l-0.3,3.7l-3.4,38.1h-31C-351,282.3-351,268.4-351,268.4z"/>
<path class="st1" d="M-350.9,304.3L-350.9,304.3l-15.5-4.1l-1-11h-13.9l1.9,21.7l28.3,7.9l0.1,0
	C-350.9,318.7-350.9,304.3-350.9,304.3z"/>
<path class="st1" d="M-333.9,281.7l-1.7,18.5l-15.4,4.2v14.4l28.4-7.9l0.2-2.3l2.4-26.9C-320,281.7-333.9,281.7-333.9,281.7z"/>
<path class="st1" d="M-351,240.4v13.8h-33.4l-0.3-3.1l-0.6-7l-0.3-3.7C-385.6,240.4-351,240.4-351,240.4z M-351,268.4v13.8h-15.2
	l-0.3-3.1l-0.6-7l-0.3-3.7H-351z"/>
</svg>
