<?xml version="1.0" encoding="utf-8"?>
<!-- Generator: Adobe Illustrator 19.0.0, SVG Export Plug-In . SVG Version: 6.00 Build 0)  -->
<svg version="1.1" id="Layer_1" xmlns="http://www.w3.org/2000/svg" xmlns:xlink="http://www.w3.org/1999/xlink" x="0px" y="0px"
	 viewBox="-424 223 90 90" style="enable-background:new -424 223 90 90;" xml:space="preserve">
<style type="text/css">
	.st0{fill:#F5F5F5;}
</style>
<path class="st0" d="M-338.1,288.5l-22.5-22.5l10.2-10.2l4.1-4.1l4.1-4.1c4.5-4.5,4.5-11.8,0-16.4c-4.5-4.5-11.8-4.5-16.4,0
	l-4.1,4.1l-4.1,4.1l-10.2,10.2l-22.5-22.5l-4.1-4.1l-4.1,4.1l-12.3,12.3l-4.1,4.1l4.1,4.1l5.1,5.1l2,2l6.1,6.1l2,2l6.1,6.1l1,1
	l-10.2,10.2l-3.4,3.9c-1.4,1.6-2.5,3.5-3.2,5.6l-3.1,9.2l-3.7,11l11-3.7l9.2-3.1c2-0.7,3.9-1.8,5.6-3.2l3.9-3.4l10.2-10.2l1,1
	l6.1,6.1l2,2l6.1,6.1l2,2l5.1,5.1l4.1,4.1l4.1-4.1l12.3-12.3l4.1-4.1L-338.1,288.5z M-354.5,235.3c2.3-2.3,5.9-2.3,8.2,0
	c2.3,2.3,2.3,5.9,0,8.2l-4.1,4.1l-8.2-8.2L-354.5,235.3z M-362.6,243.5l0.2,0.2l8,8l-10.2,10.2l-8.2-8.2L-362.6,243.5z
	 M-411.7,300.7l4.1-12.3l8.2,8.2L-411.7,300.7z M-395.4,292.5l-8.2-8.2l10.2-10.2l3.1,3.1l2,2l3.1,3.1L-395.4,292.5z M-354.5,304.8
	l-5.1-5.1l8.2-8.2l-2-2l-8.2,8.2l-6.1-6.1l4.1-4.1l-2-2l-4.1,4.1l-6.1-6.1l4.1-4.1l-2-2l-4.1,4.1l-6.1-6.1l8.2-8.2l-2-2l-8.2,8.2
	l-6.1-6.1l4.1-4.1l-2-2l-4.1,4.1l-6.1-6.1l4.1-4.1l-2-2l-4.1,4.1l-6.1-6.1l8.2-8.2l-2-2l-8.2,8.2l-5.1-5.1l12.3-12.3l61.4,61.4
	L-354.5,304.8z"/>
</svg>
