<?xml version="1.0" encoding="utf-8"?>
<!-- Generator: Adobe Illustrator 19.0.0, SVG Export Plug-In . SVG Version: 6.00 Build 0)  -->
<svg version="1.1" id="Layer_1" xmlns="http://www.w3.org/2000/svg" xmlns:xlink="http://www.w3.org/1999/xlink" x="0px" y="0px"
	 viewBox="-415 217 128 128" style="enable-background:new -415 217 128 128;" xml:space="preserve">
<style type="text/css">
	.st0{fill:#F5F5F5;}
</style>
<g>
	<path class="st0" d="M-351,218.5c-23.5,0-42.5,19-42.5,42.5c0,18.8,12.2,34.7,29.1,40.4c2.1,0.4,2.9-0.9,2.9-2c0-1,0-4.4-0.1-7.9
		c-11.8,2.6-14.3-5-14.3-5c-1.9-4.9-4.7-6.2-4.7-6.2c-3.9-2.6,0.3-2.6,0.3-2.6c4.3,0.3,6.5,4.4,6.5,4.4c3.8,6.5,10,4.6,12.4,3.5
		c0.4-2.8,1.5-4.6,2.7-5.7c-9.5-1.1-19.4-4.7-19.4-21c0-4.6,1.7-8.4,4.4-11.4c-0.4-1.1-1.9-5.4,0.4-11.3c0,0,3.6-1.1,11.7,4.4
		c3.4-0.9,7-1.4,10.6-1.4c3.6,0,7.3,0.5,10.7,1.4c8.1-5.5,11.7-4.4,11.7-4.4c2.3,5.9,0.9,10.2,0.4,11.3c2.7,3,4.4,6.8,4.4,11.4
		c0,16.3-10,19.9-19.4,21c1.5,1.3,2.9,3.9,2.9,7.9c0,5.7,0,10.3,0,11.7c0,1.1,0.8,2.5,2.9,2c16.9-5.6,29.1-21.6,29.1-40.4
		C-308.5,237.6-327.5,218.5-351,218.5z"/>
	<path class="st0" d="M-377.4,279.6c-0.1,0.2-0.4,0.3-0.7,0.1c-0.3-0.1-0.5-0.4-0.4-0.6c0.1-0.2,0.4-0.3,0.7-0.1
		C-377.5,279.1-377.3,279.4-377.4,279.6L-377.4,279.6z M-375.7,281.5c-0.2,0.2-0.6,0.1-0.9-0.2c-0.3-0.3-0.3-0.7-0.1-0.9
		c0.2-0.2,0.6-0.1,0.9,0.2C-375.6,280.9-375.5,281.3-375.7,281.5L-375.7,281.5z M-374,284c-0.3,0.2-0.7,0-1-0.4
		c-0.3-0.4-0.3-0.8,0-1c0.3-0.2,0.7,0,1,0.4C-373.8,283.3-373.8,283.8-374,284L-374,284z M-371.7,286.3c-0.2,0.3-0.7,0.2-1.1-0.2
		c-0.4-0.3-0.5-0.8-0.2-1.1c0.2-0.3,0.7-0.2,1.1,0.2C-371.6,285.6-371.5,286.1-371.7,286.3L-371.7,286.3z M-368.6,287.7
		c-0.1,0.3-0.6,0.5-1.1,0.3c-0.5-0.1-0.8-0.5-0.7-0.9c0.1-0.3,0.6-0.5,1.1-0.3C-368.8,287-368.5,287.4-368.6,287.7L-368.6,287.7z
		 M-365.1,288c0,0.4-0.4,0.6-0.9,0.6c-0.5,0-0.9-0.3-0.9-0.6c0-0.4,0.4-0.6,0.9-0.6C-365.5,287.3-365.1,287.6-365.1,288z
		 M-361.8,287.4c0.1,0.3-0.3,0.7-0.8,0.8c-0.5,0.1-1-0.1-1-0.5c-0.1-0.4,0.3-0.7,0.8-0.8C-362.4,286.9-361.9,287.1-361.8,287.4
		L-361.8,287.4z"/>
</g>
<g>
	<path class="st0" d="M-390.1,325.3h-10.7c-0.3,0-0.5,0.2-0.5,0.5v5.2c0,0.3,0.2,0.5,0.5,0.5h4.2v6.5c0,0-0.9,0.3-3.5,0.3
		c-3.1,0-7.3-1.1-7.3-10.5c0-9.4,4.4-10.6,8.6-10.6c3.6,0,5.2,0.6,6.2,0.9c0.3,0.1,0.6-0.2,0.6-0.5l1.2-5.1c0-0.2-0.1-0.3-0.2-0.4
		c-0.4-0.3-2.9-1.7-9.1-1.7c-7.1,0-14.5,3-14.5,17.6c0,14.6,8.4,16.8,15.5,16.8c5.9,0,9.4-2.5,9.4-2.5c0.1-0.1,0.2-0.3,0.2-0.4
		v-16.3C-389.6,325.5-389.9,325.3-390.1,325.3L-390.1,325.3z M-335.5,311.8h-6c-0.3,0-0.5,0.2-0.5,0.5c0,0,0,0,0,0l0,11.6h-9.4
		v-11.6c0-0.3-0.2-0.5-0.5-0.5c0,0,0,0,0,0h-6c-0.3,0-0.5,0.2-0.5,0.5c0,0,0,0,0,0v31.5c0,0.3,0.2,0.5,0.5,0.5h6
		c0.3,0,0.5-0.2,0.5-0.5c0,0,0,0,0,0v-13.5h9.4l0,13.5c0,0.3,0.2,0.5,0.5,0.5h6c0.3,0,0.5-0.2,0.5-0.5c0,0,0,0,0,0v-31.5
		C-335,312-335.2,311.8-335.5,311.8z M-382.7,312.5c-2.1,0-3.9,1.8-3.9,3.9c0,2.2,1.7,3.9,3.9,3.9c2.1,0,3.9-1.8,3.9-3.9
		C-378.8,314.3-380.5,312.5-382.7,312.5z M-379.7,322.1h-6c-0.3,0-0.5,0.3-0.5,0.6v20.9c0,0.6,0.4,0.8,0.9,0.8h5.4
		c0.6,0,0.7-0.3,0.7-0.8v-6.3v-14.6C-379.2,322.4-379.4,322.1-379.7,322.1C-379.7,322.1-379.7,322.1-379.7,322.1L-379.7,322.1z
		 M-312.1,322.2h-6c-0.3,0-0.5,0.2-0.5,0.5c0,0,0,0,0,0v15.5c0,0-1.5,1.1-3.7,1.1c-2.2,0-2.7-1-2.7-3.1v-13.5c0-0.3-0.2-0.5-0.5-0.5
		c0,0,0,0,0,0h-6.1c-0.3,0-0.5,0.2-0.5,0.5v14.5c0,6.3,3.5,7.8,8.3,7.8c3.9,0,7.1-2.2,7.1-2.2s0.1,1.1,0.2,1.3
		c0.1,0.1,0.2,0.3,0.4,0.3l3.9,0c0.3,0,0.5-0.2,0.5-0.5l0,0l0-21.2C-311.6,322.4-311.8,322.2-312.1,322.2L-312.1,322.2z
		 M-295.8,321.5c-3.4,0-5.7,1.5-5.7,1.5v-10.7c0-0.3-0.2-0.5-0.5-0.5c0,0,0,0,0,0h-6c-0.3,0-0.5,0.2-0.5,0.5c0,0,0,0,0,0v31.5
		c0,0.3,0.2,0.5,0.5,0.5c0,0,0,0,0,0h4.2c0.2,0,0.3-0.1,0.4-0.3c0.1-0.2,0.3-1.5,0.3-1.5s2.5,2.3,7.1,2.3c5.5,0,8.6-2.8,8.6-12.5
		C-287.3,322.7-292.4,321.5-295.8,321.5L-295.8,321.5z M-298.1,339.2c-2.1-0.1-3.5-1-3.5-1v-10c0,0,1.4-0.9,3.1-1
		c2.2-0.2,4.2,0.5,4.2,5.6C-294.3,338.3-295.2,339.3-298.1,339.2L-298.1,339.2z M-361.8,339.1c-0.3,0-0.9,0.1-1.6,0.1
		c-2.2,0-3-1-3-2.4V328h4.5c0.3,0,0.5-0.2,0.5-0.5c0,0,0,0,0,0v-4.9c0-0.3-0.2-0.5-0.5-0.5c0,0,0,0,0,0h-4.5l0-6
		c0-0.2-0.1-0.3-0.4-0.3h-6.2c-0.2,0-0.4,0.1-0.4,0.3v6.2c0,0-3.1,0.7-3.3,0.8c-0.2,0.1-0.4,0.3-0.4,0.5v3.9c0,0.3,0.2,0.5,0.5,0.5
		c0,0,0,0,0,0h3.2v9.3c0,6.9,4.9,7.6,8.1,7.6c1.5,0,3.3-0.5,3.6-0.6c0.2-0.1,0.3-0.3,0.3-0.5l0-4.3
		C-361.3,339.3-361.5,339.1-361.8,339.1L-361.8,339.1z"/>
</g>
</svg>
