<?xml version="1.0" encoding="utf-8"?>
<!-- Generator: Adobe Illustrator 19.0.0, SVG Export Plug-In . SVG Version: 6.00 Build 0)  -->
<svg version="1.1" id="_x39_8fdd3a5-2c74-40f5-a4f2-41d93d22b358"
	 xmlns="http://www.w3.org/2000/svg" xmlns:xlink="http://www.w3.org/1999/xlink" x="0px" y="0px" viewBox="-24 -94.2 909.7 748.2"
	 style="enable-background:new -24 -94.2 909.7 748.2;" xml:space="preserve">
<style type="text/css">
	.st0{opacity:0.7;}
	.st1{fill:url(#SVGID_1_);}
	.st2{fill:#6C63FF;}
	.st3{opacity:0.1;enable-background:new    ;}
	.st4{fill:#EEEEEE;}
	.st5{fill:none;stroke:#E0E0E0;stroke-width:8;stroke-miterlimit:10;}
	.st6{fill:url(#SVGID_2_);}
	.st7{fill:#3D1608;}
	.st8{fill:none;stroke:#BDBDBD;stroke-width:5;stroke-miterlimit:10;}
	.st9{fill:#B84733;}
	.st10{fill:#F55F44;}
	.st11{fill:#39447A;}
	.st12{opacity:5.000000e-002;enable-background:new    ;}
	.st13{fill:#FDA57D;}
	.st14{fill:#333333;}
	.st15{fill:url(#SVGID_3_);}
	.st16{fill:#4DB6AC;}
	.st17{opacity:0.6;fill:none;stroke:#535461;stroke-miterlimit:10;enable-background:new    ;}
	.st18{fill:url(#SVGID_4_);}
	.st19{fill:#E0E0E0;}
	.st20{fill:#535461;}
	.st21{fill:url(#SVGID_5_);}
	.st22{fill:#3E3F49;}
</style>
<title>hello</title>
<g class="st0">
	
		<linearGradient id="SVGID_1_" gradientUnits="userSpaceOnUse" x1="942.5574" y1="242.97" x2="942.5575" y2="303.98" gradientTransform="matrix(1 0 0 -1 -146.88 483.67)">
		<stop  offset="0" style="stop-color:#808080;stop-opacity:0.25"/>
		<stop  offset="0.54" style="stop-color:#808080;stop-opacity:0.12"/>
		<stop  offset="1" style="stop-color:#808080;stop-opacity:0.1"/>
	</linearGradient>
	<path class="st1" d="M815.8,190.6v-10.9h-54.5v50.4c0,5.9,4.8,10.6,10.6,10.6h33.2c5.9,0,10.6-4.8,10.6-10.6v-11.2
		c7.8,0,14.2-6.3,14.2-14.2C830,196.9,823.7,190.6,815.8,190.6L815.8,190.6z M815.8,213.5V196c4.8-0.2,8.8,3.6,9,8.4
		c0.2,4.8-3.6,8.8-8.4,9C816.2,213.5,816,213.5,815.8,213.5L815.8,213.5z"/>
</g>
<path class="st2" d="M814.1,192.3c-7.1,0-12.9,5.8-12.9,12.9s5.8,12.9,12.9,12.9c7.1,0,12.9-5.8,12.9-12.9l0,0
	C827,198.1,821.3,192.3,814.1,192.3z M814.1,213.2c-4.4,0-8-3.6-8-8s3.6-8,8-8s8,3.6,8,8S818.5,213.2,814.1,213.2
	C814.1,213.2,814.1,213.2,814.1,213.2L814.1,213.2z"/>
<path class="st3" d="M814.1,192.3c-7.1,0-12.9,5.8-12.9,12.9s5.8,12.9,12.9,12.9c7.1,0,12.9-5.8,12.9-12.9l0,0
	C827,198.1,821.3,192.3,814.1,192.3z M814.1,213.2c-4.4,0-8-3.6-8-8s3.6-8,8-8s8,3.6,8,8S818.5,213.2,814.1,213.2
	C814.1,213.2,814.1,213.2,814.1,213.2L814.1,213.2z"/>
<path class="st2" d="M764.3,182.3h49.7l0,0v46c0,5.4-4.4,9.8-9.8,9.8l0,0h-30.2c-5.4,0-9.8-4.4-9.8-9.8l0,0V182.3L764.3,182.3z"/>
<path class="st3" d="M805.1,182.3v46c0,5.4-4.3,9.7-9.7,9.7l0,0h5c5.4,0,9.7-4.3,9.7-9.7v0v-46H805.1z"/>
<path class="st4" d="M774.1,145.3c-0.9,0-1.7,0.4-2.2,1.1c-0.7,1.2,0.5,2.5,1.6,3.3c2,1.5,4.1,3,5.5,5.1s1.8,5,0.3,7
	c-1.9,2.6-6.5,3.2-7,6.4c-0.3,2.1,1.5,3.8,3.3,4.9c4.5,2.6,10.3,3.3,13.5,7.3c1.3-2.8,4.3-4.4,7.3-5s6.1-0.6,9.1-1.1
	c1,0,2-0.5,2.5-1.4c0.8-1.7-1.6-3.8-0.7-5.5c0.6-1.3,2.5-1.2,3.9-1.7c2.2-0.9,3.1-3.7,2.5-6s-2.4-4.1-4.3-5.6c-5-4-11.1-6.3-17.2-8
	c-2.8-0.8-6.2-2-9.2-2.1S777,144.8,774.1,145.3z"/>
<line class="st5" x1="425.1" y1="249.8" x2="321.1" y2="573.8"/>
<g class="st0">
	
		<linearGradient id="SVGID_2_" gradientUnits="userSpaceOnUse" x1="529.835" y1="259.78" x2="529.835" y2="316.37" gradientTransform="matrix(1 0 0 -1 -146.88 483.67)">
		<stop  offset="0" style="stop-color:#808080;stop-opacity:0.25"/>
		<stop  offset="0.54" style="stop-color:#808080;stop-opacity:0.12"/>
		<stop  offset="1" style="stop-color:#808080;stop-opacity:0.1"/>
	</linearGradient>
	<path class="st6" d="M405.4,223.6l-49.1-14.3v-42l53.4,56.6C407,223.7,405.4,223.6,405.4,223.6z"/>
</g>
<circle class="st7" cx="274.1" cy="4.8" r="72"/>
<path class="st2" d="M356.1,169.8l55,58.3c4.1,4.3,10.9,4.5,15.2,0.5c0.8-0.8,1.5-1.6,2-2.6l60.9-109.2l-17-6l-50,72
	c0,0-93.9-97.8-107-93S356.1,169.8,356.1,169.8z"/>
<line class="st8" x1="251.1" y1="371.8" x2="170.1" y2="581.8"/>
<line class="st8" x1="291.1" y1="371.8" x2="372.1" y2="581.8"/>
<ellipse class="st9" cx="271.1" cy="373.3" rx="94" ry="25.5"/>
<ellipse class="st10" cx="271.1" cy="371.3" rx="94" ry="25.5"/>
<line class="st8" x1="231.5" y1="417.9" x2="320.2" y2="445.3"/>
<line class="st8" x1="310.6" y1="417.9" x2="221.9" y2="445.3"/>
<path class="st2" d="M272.1,87.8h27.9c30.9,0,56,25.1,56,56v148l0,0h-160l0,0V163.9C196,121.9,230.1,87.8,272.1,87.8
	C272.1,87.8,272.1,87.8,272.1,87.8z"/>
<path class="st11" d="M196.1,291.8h160l0,0v87l0,0h-89c-39.2,0-71-31.8-71-71l0,0V291.8L196.1,291.8z"/>
<path class="st12" d="M198.2,147.8l97.8,93h108v-14l-93-27l-79.5-98.2C231.5,101.6,195.4,123.9,198.2,147.8z"/>
<path class="st2" d="M198.2,145.8l97.8,93h108v-14l-93-27l-79.5-98.2C231.5,99.6,195.4,121.9,198.2,145.8z"/>
<path class="st13" d="M404.1,224.8c0,0,52,4,38,14h-38V224.8z"/>
<path class="st13" d="M472.1,110.8c0,0,13-39,22-28s-5,34-5,34L472.1,110.8z"/>
<polygon class="st12" points="196.1,291.8 196.1,296.5 356.1,296.8 356.1,291.8 "/>
<path class="st11" d="M320.5,384.3l107.6,9.8l5.9,219.7l38.5-12.5c0,0,57.6-249,2.7-270s-114.3-48.6-149.8-26.1
	C289.9,327.8,320.5,384.3,320.5,384.3z"/>
<path class="st3" d="M327.1,316.8c0,0,59,30,67,64"/>
<path class="st11" d="M264.1,377.8l84,68l-94,151l39,11c0,0,163-140,129-188s-68-104-110-105S264.1,377.8,264.1,377.8z"/>
<polygon class="st12" points="396.1,156.8 417.1,192.8 422.1,182.8 "/>
<path class="st14" d="M254.1,596.8c0,0-31,24-7,32s73,14,73,14s8-14-3-20s-26-3-26-3l2-12L254.1,596.8z"/>
<path class="st14" d="M434.9,613.2c0,0-13.6,37.8,11,31.9s69.4-26.7,69.4-26.7s-0.6-16.1-13.1-15.4s-23.7,11.2-23.7,11.2l-5.4-13.4
	L434.9,613.2z"/>
<path class="st13" d="M276.1,52.8L276.1,52.8c11,0,20,9,20,20v20c0,11-9,20-20,20l0,0c-11,0-20-9-20-20v-20
	C256.1,61.8,265,52.8,276.1,52.8z"/>
<path class="st12" d="M276.1,54.8c-11,0-20,9-20,20v6.8c13,4.3,27,4.3,40,0v-6.8C296.1,63.8,287.1,54.8,276.1,54.8z"/>
<circle class="st13" cx="276.1" cy="18.8" r="64"/>
<path class="st12" d="M212.1,15.9c0,0,16,4.1,25-14.1s16-28.1,53-17.4s44.4,12.1,46.2,1.9c1.2-6.9-11.9-23.8-20.4-33.8
	c-4.1-4.9-10.9-7.8-18-7.8h-41.8l-25,11.6l-19,16.5l-4,22.3L212.1,15.9z"/>
<path class="st7" d="M212.1,13.9c0,0,16,4.1,25-14.1s16-28.1,53-17.4s44.4,12.1,46.2,1.9c1.2-6.9-11.9-23.8-20.4-33.8
	c-4.1-4.9-10.9-7.8-18-7.8h-41.8l-25,11.6l-19,16.5l-4,22.3L212.1,13.9z"/>
<ellipse class="st13" cx="218.6" cy="13.8" rx="6.5" ry="13"/>
<path class="st7" d="M213.9-19.6c-1.5-8.4-2.9-17.2-0.2-25.2c2.7-7.8,8.9-13.8,16.7-16.3c5-1.6,10.5-1.5,15.5-3.2
	c7-2.3,12.6-7.7,18.7-11.9c5.4-3.7,11.4-6.5,17.7-8.3c5.7-1.6,12.3-2.3,17,1.4c3.9,3.1,5.2,8.4,8.4,12.2c3.7,4.4,9.5,6.3,14.6,9.1
	c12.8,7.2,21.3,20.2,22.6,34.9c0.2,2.1,0,4.7-1.8,5.9c-1.1,0.6-2.4,0.8-3.6,0.7c-25.6-0.4-51.2-0.7-76.7-3.1
	c-7.9-0.7-15.9-1.6-23.8-1.4c-12.3,0.5-24.3,3.9-35,9.9"/>
<g class="st0">
	
		<linearGradient id="SVGID_3_" gradientUnits="userSpaceOnUse" x1="122.9081" y1="16.5287" x2="297.8783" y2="16.5287" gradientTransform="matrix(1 0 0 -1 -146.88 483.67)">
		<stop  offset="0" style="stop-color:#808080;stop-opacity:0.25"/>
		<stop  offset="0.54" style="stop-color:#808080;stop-opacity:0.12"/>
		<stop  offset="1" style="stop-color:#808080;stop-opacity:0.1"/>
	</linearGradient>
	<path class="st15" d="M150,424c3.4-13.6-2-27.9-13.5-36c-3-2-6.3-3.5-9-5.8c-4.6-3.8-7.2-9.5-9-15.2c-4.5-13.6-6-28.8-13.9-41.1
		c-7.2-11.2-21.3-14.4-33.7-15.5c-4.5-0.4-9.3-0.6-13.5,1.3c-6.9,3.1-10.3,11.4-10.6,19c-0.3,7.7,1.7,15.1,2.2,22.7
		s-0.9,16-6.5,21.1s-13.6,5.8-21.1,6.8c-9.8,1.4-19.3,3.7-28.6,7.1c-7.8,2.8-16.4,7.9-16.8,16.2c-0.3,6.8,5.1,12.1,9.2,17.5
		c7.6,10,11.5,23.3,8.9,35.6c-2.6,12.6-11.5,23.4-13.1,36.1c-0.4,3.2-0.3,6.7,1.3,9.5c1.2,2,2.9,3.8,4.8,5.1
		c4.8,3.7,10.2,6.7,14.7,10.7c9.5,8.4,14.6,20.6,18.6,32.6c0.4,1.2,0.7,2.3,1.1,3.5h-9.3c-19,0.1-34.4,15.4-34.4,34.4l0,0
		c0.1,19,15.4,34.4,34.4,34.4h93c19-0.1,34.4-15.4,34.4-34.4l0,0c0-19.1-15.5-34.5-34.5-34.5H79.7c6-8.1,12.3-15.7,21.6-18.8
		s20.5-1.3,27.9-7.8c3.6-3.2,5.5-7.8,6.3-12.5c1.5-8.5,0.1-17.2-4.1-24.8c-2.9-5.2-7.2-10-8.1-15.9c-0.8-5.1,1-10.2,3.5-14.7
		C133.8,448.1,146.2,438.1,150,424z"/>
</g>
<path class="st16" d="M70.5,317.8c-4.3-0.4-8.9-0.6-12.8,1.2c-6.6,3-9.8,10.8-10.1,18.1s1.6,14.4,2.1,21.7s-0.8,15.2-6.2,20.1
	s-13,5.5-20.1,6.5c-9.3,1.3-18.4,3.6-27.2,6.8c-7.4,2.7-15.6,7.6-16,15.4c-0.3,6.4,4.9,11.6,8.8,16.7c7.3,9.6,10.9,22.2,8.4,33.9
	c-2.5,12-10.9,22.3-12.4,34.4c-0.4,3.1-0.3,6.4,1.2,9.1c1.2,1.9,2.8,3.6,4.6,4.9c4.6,3.5,9.7,6.4,14,10.2c9,8,13.9,19.6,17.7,31
	c3.7,11.3,6.6,22.8,8.7,34.4c7.8-5,17.8-4.9,26.1-9c17.6-8.7,23.6-33.7,42.2-40c8.8-3,19.6-1.2,26.5-7.4c3.4-3,5.2-7.5,6-11.9
	c1.5-8.1,0.1-16.4-3.9-23.5c-2.8-5-6.9-9.5-7.8-15.1c-0.8-4.8,1-9.7,3.3-14c6.7-12.2,18.5-21.6,22.2-35.1c3.2-13-1.9-26.6-12.8-34.3
	c-2.8-1.9-6-3.4-8.6-5.6c-4.4-3.7-6.8-9.1-8.6-14.5c-4.3-12.9-5.7-27.4-13.2-39.1C95.7,322,82.4,318.9,70.5,317.8z"/>
<path class="st17" d="M70.4,318.3c0,0,16.4,219.6-26.2,257.4"/>
<path class="st2" d="M14.6,551.1h88.5c18.1,0,32.8,14.7,32.8,32.8v0c0,18.1-14.7,32.8-32.8,32.8H14.6c-18.1,0-32.8-14.7-32.8-32.8v0
	C-18.1,565.7-3.5,551.1,14.6,551.1z"/>
<path class="st17" d="M-19.8,403.5c0,0,41.9-4.9,93.1,26.2"/>
<path class="st17" d="M72.5,456c0,0,23.3-38.5,73.3-45.9"/>
<path class="st17" d="M-15.7,492.9c0,0,58.1-9.8,84.8,6.5"/>
<path class="st17" d="M65.8,521.9c0,0,30.4-13.8,64.6-2.6"/>
<linearGradient id="SVGID_4_" gradientUnits="userSpaceOnUse" x1="704.6" y1="166.7" x2="704.6" y2="169.7" gradientTransform="matrix(1 0 0 -1 -146.88 483.67)">
	<stop  offset="0" style="stop-color:#808080;stop-opacity:0.25"/>
	<stop  offset="0.54" style="stop-color:#808080;stop-opacity:0.12"/>
	<stop  offset="1" style="stop-color:#808080;stop-opacity:0.1"/>
</linearGradient>
<path class="st18" d="M557.7,317c0.8,0,1.5-0.7,1.5-1.5s-0.7-1.5-1.5-1.5s-1.5,0.7-1.5,1.5S556.9,317,557.7,317z"/>
<line class="st5" x1="777.8" y1="249.8" x2="881.8" y2="619.9"/>
<rect x="320.6" y="239" class="st19" width="561.6" height="21.9"/>
<path class="st20" d="M465.6,233.8h79c3.6,0,6.5,2.9,6.5,6.5l0,0c0,3.6-2.9,6.5-6.5,6.5h-79c-3.6,0-6.5-2.9-6.5-6.5l0,0
	C459.1,236.7,462,233.8,465.6,233.8z"/>
<g class="st0">
	
		<linearGradient id="SVGID_5_" gradientUnits="userSpaceOnUse" x1="629.39" y1="312.6" x2="629.39" y2="470.7" gradientTransform="matrix(1 0 0 -1 0 559.5601)">
		<stop  offset="0" style="stop-color:#808080;stop-opacity:0.25"/>
		<stop  offset="0.54" style="stop-color:#808080;stop-opacity:0.12"/>
		<stop  offset="1" style="stop-color:#808080;stop-opacity:0.1"/>
	</linearGradient>
	<path class="st21" d="M543.3,88.9h172.2c15.6,0,28.2,12.6,28.2,28.2v101.7c0,15.6-12.6,28.2-28.2,28.2H543.3
		c-15.6,0-28.2-12.6-28.2-28.2V117.1C515.1,101.5,527.7,88.9,543.3,88.9z"/>
</g>
<path class="st22" d="M546,91.8h162.9c14.8,0,26.8,12,26.8,26.8v101.5c0,14.8-12,26.8-26.8,26.8H546c-14.8,0-26.8-12-26.8-26.8
	V118.6C519.1,103.8,531.1,91.8,546,91.8z"/>
<path class="st20" d="M549,91.8h162.9c14.8,0,26.8,12,26.8,26.8v101.5c0,14.8-12,26.8-26.8,26.8H549c-14.8,0-26.8-12-26.8-26.8
	V118.6C522.1,103.8,534.1,91.8,549,91.8z"/>
<circle class="st19" cx="640.6" cy="168.3" r="7"/>
</svg>
