<?xml version="1.0" encoding="utf-8"?>
<!-- Generator: Adobe Illustrator 19.0.0, SVG Export Plug-In . SVG Version: 6.00 Build 0)  -->
<svg version="1.1" id="Layer_1" xmlns="http://www.w3.org/2000/svg" xmlns:xlink="http://www.w3.org/1999/xlink" x="0px" y="0px"
	 viewBox="-830 437 110 124.7" style="enable-background:new -830 437 110 124.7;" xml:space="preserve">
<style type="text/css">
	.st0{fill:#DBDBDB;}
	.st1{fill:#3B3D3E;}
</style>
<path class="st0" d="M-820,549.2L-830,437h110l-10,112.2l-45,12.5L-820,549.2z"/>
<path class="st0" d="M-775,552.1l36.4-10.1l8.6-95.9h-45V552.1z"/>
<path class="st1" d="M-775,487.8h-18.2l-1.3-14.1h19.5v-13.8h-34.5l0.3,3.7l3.4,37.9h30.8V487.8L-775,487.8z M-775,523.5L-775,523.5
	l-15.4-4.1l-1-11h-13.8l1.9,21.6l28.2,7.8h0.1V523.5L-775,523.5z"/>
<path class="st1" d="M-775,487.8v13.8h16.9l-1.6,17.8l-15.3,4.1v14.3l28.2-7.8l0.2-2.3l3.2-36.2l0.3-3.7h-3.7H-775L-775,487.8z
	 M-775,459.9v13.8h33.2l0.3-3.1l0.6-7l0.3-3.7H-775z"/>
</svg>
