<?xml version="1.0" encoding="utf-8"?>
<!-- Generator: Adobe Illustrator 19.0.0, SVG Export Plug-In . SVG Version: 6.00 Build 0)  -->
<svg version="1.1" id="Layer_1" xmlns="http://www.w3.org/2000/svg" xmlns:xlink="http://www.w3.org/1999/xlink" x="0px" y="0px"
	 viewBox="-406 218.7 109.9 124.7" style="enable-background:new -406 218.7 109.9 124.7;" xml:space="preserve">
<style type="text/css">
	.st0{fill:#F5F5F5;}
	.st1{fill:#252627;}
</style>
<path class="st0" d="M-396,330.9l-10-112.2H-296l-10,112.2l-45,12.5L-396,330.9z"/>
<path class="st0" d="M-351,333.8l36.4-10.1l8.6-95.9H-351V333.8z"/>
<path class="st1" d="M-351,269.5h-18.2l-1.3-14.1h19.5v-13.8h-34.5l0.3,3.7l3.4,37.9h30.8V269.5z M-351,305.2L-351,305.2l-15.4-4.1
	l-1-11h-13.8l1.9,21.6l28.2,7.8l0.1,0V305.2z"/>
<path class="st1" d="M-351,269.5v13.8h16.9l-1.6,17.8l-15.3,4.1v14.3l28.2-7.8l0.2-2.3l3.2-36.2l0.3-3.7h-3.7H-351z M-351,241.6
	v13.8h33.2l0.3-3.1l0.6-7l0.3-3.7H-351z"/>
</svg>
