<?xml version="1.0" encoding="utf-8"?>
<!-- Generator: Adobe Illustrator 19.0.0, SVG Export Plug-In . SVG Version: 6.00 Build 0)  -->
<svg version="1.1" id="Layer_1" xmlns="http://www.w3.org/2000/svg" xmlns:xlink="http://www.w3.org/1999/xlink" x="0px" y="0px"
	 viewBox="-434 656.7 184.6 180" style="enable-background:new -434 656.7 184.6 180;" xml:space="preserve">
<style type="text/css">
	.st0{fill:url(#SVGID_1_);}
	.st1{fill:#FF7F18;}
</style>
<radialGradient id="SVGID_1_" cx="-1460.4017" cy="-526.4677" r="0.2357" gradientTransform="matrix(545.6736 0 0 528.3113 796532.125 278840.0938)" gradientUnits="userSpaceOnUse">
	<stop  offset="0" style="stop-color:#423325;stop-opacity:0.98"/>
	<stop  offset="1" style="stop-color:#1C0A00"/>
</radialGradient>
<path class="st0" d="M-426.3,664.3h169.2V829h-169.2V664.3z"/>
<path class="st1" d="M-426.3,664.3h169.2V829h-169.2V664.3z M-434,836.7h184.6v-180H-434V836.7z M-313.1,720.8
	c0-0.6,0.2-0.9,0.9-0.9h12.1c0.6,0,0.9,0.2,0.9,0.9v60.7c0,0.6-0.1,0.9-0.9,0.9H-312c-0.8,0-1-0.4-1-1L-313.1,720.8L-313.1,720.8
	L-313.1,720.8z M-313.9,703.3c0-4.9,3.5-7.8,7.8-7.8c4.7,0,7.8,3.1,7.8,7.8c0,5.1-3.3,7.8-8,7.8
	C-310.7,711.2-313.9,708.4-313.9,703.3z M-348.5,746.1c-2.1-8.5-7.2-27.1-9.2-36.2h-0.1c-1.6,9-5.7,24.2-8.9,36.2H-348.5
	L-348.5,746.1z M-369.9,758.6l-6.1,23.1c-0.1,0.6-0.4,0.8-1.1,0.8h-11.3c-0.8,0-0.9-0.2-0.8-1.1l21.8-76.5c0.4-1.4,0.6-2.6,0.8-6.4
	c0-0.6,0.2-0.8,0.6-0.8h16.2c0.6,0,0.8,0.1,0.9,0.8l24.5,83c0.1,0.6,0,1-0.6,1h-12.8c-0.6,0-1-0.1-1.1-0.7l-6.3-23.1L-369.9,758.6
	L-369.9,758.6z"/>
</svg>
