<?xml version="1.0" encoding="utf-8"?>
<!-- Generator: Adobe Illustrator 19.0.0, SVG Export Plug-In . SVG Version: 6.00 Build 0)  -->
<svg version="1.1" id="Layer_1" xmlns="http://www.w3.org/2000/svg" xmlns:xlink="http://www.w3.org/1999/xlink" x="0px" y="0px"
	 viewBox="-821 847.7 184.6 180" style="enable-background:new -821 847.7 184.6 180;" xml:space="preserve">
<style type="text/css">
	.st0{fill:#250012;}
	.st1{fill:#FF408C;}
</style>
<path class="st0" d="M-813.3,855.3h169.2V1020h-169.2V855.3z"/>
<path class="st1" d="M-813.3,855.3h169.2V1020h-169.2V855.3z M-821,1027.7h184.6v-180H-821V1027.7z M-704.2,922.4
	c-1.1-0.6-2.7-0.8-4.5-0.8c-9.9,0-16.9,7.6-16.9,20.3c0,14.5,7.1,20.3,15.9,20.3c1.9,0,3.9-0.2,5.5-0.9V922.4L-704.2,922.4z
	 M-708.3,909.9c1.6,0,2.6,0,4.1,0.1v-20.4c0-0.6,0.4-0.8,0.8-0.8h12.5c0.6,0,0.8,0.2,0.8,0.6v71.9c0,2.1,0,4.8,0.4,7.8
	c0,0.6-0.1,0.6-0.7,0.9c-6.6,3.1-13.6,4.5-20.1,4.5c-17,0-29.2-10.5-29.2-32C-739.9,924.2-727.8,909.9-708.3,909.9z M-753.5,972.4
	c0,0.8-0.1,1-1,1h-11.8c-0.8,0-1-0.4-1-1v-82.6c0-0.8,0.4-1,1-1h11.9c0.6,0,0.9,0.2,0.9,0.9V972.4L-753.5,972.4z"/>
</svg>
