<?xml version="1.0" encoding="utf-8"?>
<!-- Generator: Adobe Illustrator 19.0.0, SVG Export Plug-In . SVG Version: 6.00 Build 0)  -->
<svg version="1.1" id="Layer_1" xmlns="http://www.w3.org/2000/svg" xmlns:xlink="http://www.w3.org/1999/xlink" x="0px" y="0px"
	 viewBox="-434 656.7 184.6 180" style="enable-background:new -434 656.7 184.6 180;" xml:space="preserve">
<style type="text/css">
	.st0{fill:url(#SVGID_1_);}
	.st1{fill:#FF408C;}
</style>
<radialGradient id="SVGID_1_" cx="-1460.4017" cy="-526.4677" r="0.2357" gradientTransform="matrix(545.6736 0 0 528.3113 796532.125 278840.0938)" gradientUnits="userSpaceOnUse">
	<stop  offset="0" style="stop-color:#4B2B36;stop-opacity:0.98"/>
	<stop  offset="1" style="stop-color:#250012"/>
</radialGradient>
<path class="st0" d="M-426.3,664.3h169.2V829h-169.2V664.3z"/>
<path class="st1" d="M-426.3,664.3h169.2V829h-169.2V664.3z M-434,836.7h184.6v-180H-434V836.7z M-317.2,731.4
	c-1.1-0.6-2.7-0.8-4.5-0.8c-9.9,0-16.9,7.6-16.9,20.3c0,14.5,7.1,20.3,15.9,20.3c1.9,0,3.9-0.2,5.5-0.9V731.4L-317.2,731.4z
	 M-321.3,718.9c1.6,0,2.6,0,4.1,0.1v-20.4c0-0.6,0.4-0.8,0.8-0.8h12.5c0.6,0,0.8,0.2,0.8,0.6v71.9c0,2.1,0,4.8,0.4,7.8
	c0,0.6-0.1,0.6-0.7,0.9c-6.6,3.1-13.6,4.5-20.1,4.5c-17,0-29.2-10.5-29.2-32C-352.9,733.2-340.8,718.9-321.3,718.9z M-366.5,781.4
	c0,0.8-0.1,1-1,1h-11.8c-0.8,0-1-0.4-1-1v-82.6c0-0.8,0.4-1,1-1h11.9c0.6,0,0.9,0.2,0.9,0.9L-366.5,781.4L-366.5,781.4z"/>
</svg>
