<?xml version="1.0" encoding="utf-8"?>
<!-- Generator: Adobe Illustrator 19.0.0, SVG Export Plug-In . SVG Version: 6.00 Build 0)  -->
<svg version="1.1" id="Layer_1" xmlns="http://www.w3.org/2000/svg" xmlns:xlink="http://www.w3.org/1999/xlink" x="0px" y="0px"
	 viewBox="-829.6 437.2 125.2 125.2" style="enable-background:new -829.6 437.2 125.2 125.2;" xml:space="preserve">
<style type="text/css">
	.st0{fill:#F5F5F5;}
	.st1{fill:#252627;}
</style>
<path class="st0" d="M-829.6,437.2h125.2v125.2h-125.2L-829.6,437.2L-829.6,437.2z"/>
<path class="st1" d="M-714.7,532.5c-0.9-5.7-4.6-10.5-15.7-15c-3.8-1.8-8.1-3-9.4-5.9c-0.5-1.7-0.5-2.6-0.2-3.7
	c0.8-3.3,4.8-4.4,7.9-3.4c2,0.7,3.9,2.2,5.1,4.7c5.4-3.5,5.4-3.5,9.2-5.9c-1.4-2.1-2.1-3.1-3-4c-3.2-3.6-7.7-5.5-14.8-5.4l-3.7,0.5
	c-3.5,0.9-6.9,2.7-8.9,5.2c-5.9,6.7-4.2,18.5,3,23.3c7.1,5.3,17.5,6.5,18.9,11.5c1.3,6.1-4.5,8.1-10.2,7.4c-4.2-0.9-6.6-3-9.1-6.9
	c-4.7,2.7-4.7,2.7-9.5,5.5c1.1,2.5,2.3,3.6,4.3,5.8c9.1,9.2,31.8,8.7,35.8-5.2C-714.9,540.6-713.8,537.5-714.7,532.5z M-761.5,494.7
	h-11.7V525c0,6.4,0.3,12.3-0.7,14.1c-1.7,3.6-6.2,3.1-8.2,2.4c-2.1-1-3.1-2.5-4.3-4.5c-0.3-0.6-0.6-1-0.7-1.1l-9.5,5.8
	c1.6,3.2,3.9,6.1,6.9,7.9c4.5,2.7,10.5,3.5,16.7,2.1c4.1-1.2,7.6-3.7,9.4-7.4c2.7-4.9,2.1-10.9,2.1-17.4
	C-761.5,516.2-761.5,505.5-761.5,494.7z"/>
</svg>
