<?xml version="1.0" encoding="utf-8"?>
<!-- Generator: Adobe Illustrator 19.0.0, SVG Export Plug-In . SVG Version: 6.00 Build 0)  -->
<svg version="1.1" id="Layer_1" xmlns="http://www.w3.org/2000/svg" xmlns:xlink="http://www.w3.org/1999/xlink" x="0px" y="0px"
	 viewBox="0 0 184.6 180" style="enable-background:new 0 0 184.6 180;" xml:space="preserve">
<style type="text/css">
	.st0{fill:#AED4EA;}
	.st1{clip-path:url(#SVGID_4_);}
	.st2{clip-path:url(#SVGID_6_);fill:#B0D5E9;}
	.st3{clip-path:url(#SVGID_4_);fill-rule:evenodd;clip-rule:evenodd;fill:#B0D5E9;}
	.st4{clip-path:url(#SVGID_8_);}
	.st5{clip-path:url(#SVGID_10_);fill:#ADD3E9;}
	.st6{clip-path:url(#SVGID_8_);fill-rule:evenodd;clip-rule:evenodd;fill:#ADD3E9;}
</style>
<g>
	<rect class="st0" width="184.6" height="180"/>
	<g>
		<defs>
			<rect id="SVGID_1_" x="7.7" y="7.7" width="169.2" height="164.6"/>
		</defs>
		<use xlink:href="#SVGID_1_"  style="overflow:visible;fill:#303D44;"/>
		<clipPath id="SVGID_2_">
			<use xlink:href="#SVGID_1_"  style="overflow:visible;"/>
		</clipPath>
		<g style="clip-path:url(#SVGID_2_);">
			
				<image style="overflow:visible;" width="170" height="165" xlink:href="9006366E.png"  transform="matrix(1 0 0 1 7.3074 7.5606)">
			</image>
		</g>
	</g>
	<g>
		<defs>
			<polygon id="SVGID_3_" points="96.5,111.2 93.3,125.8 63.5,125.8 46.4,125.8 46.4,111.2 46.4,41.4 63.5,41.4 63.5,111.2 
				96.5,111.2 			"/>
		</defs>
		<clipPath id="SVGID_4_">
			<use xlink:href="#SVGID_3_"  style="overflow:visible;"/>
		</clipPath>
		<g class="st1">
			<defs>
				<rect id="SVGID_5_" x="46.4" y="41.4" width="50.1" height="84.4"/>
			</defs>
			<clipPath id="SVGID_6_">
				<use xlink:href="#SVGID_5_"  style="overflow:visible;"/>
			</clipPath>
			<g transform="matrix(1 0 0 1 0 7.629395e-006)" style="clip-path:url(#SVGID_6_);">
				
					<image style="overflow:visible;" width="92" height="150" xlink:href="90063672.png"  transform="matrix(0.5779 0 0 -0.5779 45.0105 127.3829)">
				</image>
			</g>
			<polygon class="st2" points="46.4,125.8 46.3,41.4 96.5,41.4 96.5,125.8 			"/>
		</g>
		<polygon class="st3" points="46.4,125.8 46.3,111.2 46.3,41.4 63.5,41.4 63.5,111.2 96.5,111.2 93.3,125.8 		"/>
	</g>
	<g>
		<defs>
			<path id="SVGID_7_" d="M104.6,60.9h13.7c2.1,2,2.8,5.1,3.4,8.3c0,0,3.7-6.4,10.7-8.9c2.1-0.8,4.4-1,6.7-1.1c1,0,1.7,0.2,1.7,1.8
				v15.4c0,0-9.9-2.1-19,6.5v42.8h-17.1V60.9L104.6,60.9z"/>
		</defs>
		<use xlink:href="#SVGID_7_"  style="overflow:visible;fill-rule:evenodd;clip-rule:evenodd;fill:#ADD3E9;"/>
		<clipPath id="SVGID_8_">
			<use xlink:href="#SVGID_7_"  style="overflow:visible;"/>
		</clipPath>
		<g class="st4">
			<defs>
				<rect id="SVGID_9_" x="104.6" y="59.2" width="36.1" height="66.6"/>
			</defs>
			<use xlink:href="#SVGID_9_"  style="overflow:visible;fill:#ADD3E9;"/>
			<clipPath id="SVGID_10_">
				<use xlink:href="#SVGID_9_"  style="overflow:visible;"/>
			</clipPath>
			<g transform="matrix(1 0 0 1 0 7.629395e-006)" style="clip-path:url(#SVGID_10_);">
				
					<image style="overflow:visible;" width="68" height="120" xlink:href="90063675.png"  transform="matrix(0.5779 0 0 -0.5779 102.8406 127.3709)">
				</image>
			</g>
			<polygon class="st5" points="104.6,125.8 104.5,59.2 140.7,59.1 140.7,125.8 			"/>
		</g>
		<path class="st6" d="M104.6,125.8l0-64.9l13.8,0c2.2,2.1,2.9,5.4,3.4,8.3c0-0.1,3.7-6.5,10.6-8.9c1.9-0.7,4.1-1,6.7-1.1l0.1,0
			c1,0,1.6,0.3,1.6,1.9v15.4c0,0,0,0,0,0c-0.2,0-1.2-0.2-2.8-0.2c-3.4,0-10,0.9-16.2,6.8l0,42.8H104.6z"/>
	</g>
</g>
</svg>
