<?xml version="1.0" encoding="utf-8"?>
<!-- Generator: Adobe Illustrator 19.0.0, SVG Export Plug-In . SVG Version: 6.00 Build 0)  -->
<svg version="1.1" id="Livello_1" xmlns="http://www.w3.org/2000/svg" xmlns:xlink="http://www.w3.org/1999/xlink" x="0px" y="0px"
	 viewBox="-331.3 191 184.6 180" style="enable-background:new -331.3 191 184.6 180;" xml:space="preserve">
<style type="text/css">
	.st0{fill:#101E27;}
	.st1{fill:#AED3E9;}
</style>
<path class="st0" d="M-323.6,198.7h169.2v164.6h-169.2V198.7z"/>
<path class="st1" d="M-331.3,191v180h184.6V191H-331.3z M-323.6,198.7h169.2v164.6h-169.2V198.7z M-280.2,316.5
	c-0.9,0-1.2-0.4-1.2-1.2v-82.6c0-0.6,0.2-1,0.9-1h12.2c0.6,0,0.8,0.2,0.8,0.9v71.2h31.7c0.6,0,0.8,0.2,0.7,0.9l-1.9,10.9
	c-0.2,0.6-0.5,0.9-1.2,0.9h-42V316.5z M-223.2,266.8c0-0.9,0-3.2-0.4-7.5c0-0.6,0.2-0.8,0.6-1c4.7-1.9,15.8-5.3,28.3-5.3
	c0.6,0,0.9,0.2,0.9,0.8v11.1c0,0.6-0.2,0.8-0.9,0.8c-4.8-0.2-12,0.4-14.7,1.5v48.5c0,0.6-0.2,0.9-0.9,0.9h-12.1
	c-0.6,0-0.9-0.2-0.9-0.9L-223.2,266.8L-223.2,266.8z"/>
</svg>
