<?xml version="1.0" encoding="utf-8"?>
<!-- Generator: Adobe Illustrator 19.0.0, SVG Export Plug-In . SVG Version: 6.00 Build 0)  -->
<svg version="1.1" id="Layer_1" xmlns="http://www.w3.org/2000/svg" xmlns:xlink="http://www.w3.org/1999/xlink" x="0px" y="0px"
	 viewBox="0 0 1000 1000" style="enable-background:new 0 0 1000 1000;" xml:space="preserve">
<style type="text/css">
	.st0{display:none;fill:none;stroke:#FFFFFF;stroke-width:16;stroke-miterlimit:10;}
	.st1{fill:none;stroke:#FFFFFF;stroke-width:26;stroke-miterlimit:10;}
	.st2{fill:#FFFFFF;}
</style>
<circle id="XMLID_7_" class="st0" cx="500" cy="500" r="429.3"/>
<rect id="XMLID_8_" x="82.3" y="82.3" class="st1" width="835.4" height="835.4"/>
<g id="XMLID_1_">
	<path id="XMLID_150_" class="st2" d="M512.2,380.1c-4.5,13.8-10.2,25.6-17.3,35.5c-7,9.9-15.2,19.2-24.5,27.8
		c-9.6,8.6-19.5,15.6-29.5,20.9c-10.1,5.3-20.4,11-31,17c-8.6,4.8-17.5,9-26.6,12.5c-9.1,3.5-18.2,6.6-27.3,9.3
		c-9.1,2.7-18.2,5.2-27.1,7.4c-8.9,2.2-17.9,4.6-26.8,7.5c0,0-0.1,0-0.1,0c-2.9,0.6-5.4,1.3-7.6,1.6c-2.1,0.3-6.6,1-7.1,1.1
		c0,0-0.1,0-0.1,0l-23.1,1.8c-0.8,0.1-1.3,0.8-1.1,1.5c4.3,17.6,9.4,33.2,15,46.8c6.3,15.3,15,29,26.1,41.3
		c7.7,9.3,16.1,17.7,25.3,25.4c9.2,7.7,18.8,13.8,28.9,18.3c36.9,16.7,76.2,21.6,118.1,14.7c1.6,0.1,4-0.9,7.3-2.9
		c2.4-1.4,4.6-2.3,6.6-2.7c1-0.2,1.7,0.9,1.3,1.8c-1.5,3.3-3,5.8-4.7,7.4c-0.1,0.1-0.2,0.1-0.3,0.2c-6.5,3.6-12.8,6.8-19.2,9.6
		c-6.3,2.8-13.1,3.6-20.4,2.4c0,0-0.1,0-0.1,0c-11.2-0.4-22.1-0.7-32.8-0.9c-10.7-0.2-21.5-1.8-32.2-4.7
		c-54.9-13.5-97.7-49.6-128.2-108.3c-4.2-7.5-7.8-15.8-10.9-24.7c-2.6-7.6-3.3-16.5-8.9-24c-0.3-0.4-0.6-0.7-0.9-1.1c0,0,0,0,0-0.1
		l-0.3-0.4c-0.6-0.8-1.7-0.8-2.3-0.1l-0.3,0.3c-0.5,0.5-0.9,0.9-1.3,1.5c-1.9,3.3-3,6.9-4.6,9.5c-1.8,2.9-3.4,6.6-5,10.1
		c-8.3,16.3-16.9,32.3-25.9,48c-9,15.7-17.9,31.7-26.9,48l-1.1,1.8c-0.2,0.4-0.6,0.6-1,0.6c-1,0.1-1.8,0.3-2.5,0.7
		c-0.7,0.4-1.4,0.3-2.1-0.3c-0.3-0.2-0.5-0.6-0.5-1c-0.1-1-0.3-1.8-0.7-2.3c-0.4-0.6-0.3-1.3,0.5-2.2c0.1-0.1,0.2-0.3,0.3-0.5
		c1.6-5.3,2.9-10.4,4-15.3c1.1-5,1.5-10.2,2.3-15.6c0.2-1.5,0.6-3.1,1.1-4.5c0.6-1.7,1.2-2.9,1.4-3.8c0-0.1,0.1-0.1,0.1-0.2
		c3.5-5.8,5.2-11.9,8.5-18.7c3.1-6.3,4.6-13.1,8.1-18.9c0,0,0,0,0-0.1c2.9-5.4,4.9-11.4,7.4-17.8c2.4-6,5-12,7.6-18
		c0.3-0.6,0-1.4-0.6-1.6c-6.9-3.1-13.3-6.4-19.2-10.2c-6.2-3.9-12.4-7.1-18.7-10.3c-0.2-0.1-0.3-0.2-0.4-0.3
		c-1.8-2.1-3.3-5.7-4.7-8.5c-0.4-0.8,0.2-1.8,1.1-1.8l7.4,0c0.1,0,0.2,0,0.3,0c7,2,13.7,3.4,20,5.7c6.3,2.2,12.8,3.9,19.5,5.8
		c0.1,0,0.2,0.1,0.4,0.1c0.9,0,2-0.1,3.2-0.3c1.2-0.1,2.2-0.5,3.1-1.1c0.2-0.1,0.3-0.3,0.4-0.4c4.7-8.2,9.6-15.7,14.5-22.5
		c5-6.9,9.2-14.5,12.7-22.8c1.9-4.8,3.9-9.1,6-13c2.1-3.8,4.7-7.7,7.9-11.5c0,0,0,0,0-0.1c3.8-5.1,7.3-11.2,10.5-18
		c3.2-6.9,6.4-13.9,9.6-20.8c3.2-6.9,6.4-13.6,9.6-19.7c3.1-5.9,6.3-10.1,9.7-14c0.2-0.3,0.6-0.4,0.9-0.4l4.8,0
		c0.3,0,0.5,0.1,0.8,0.3c2.4,1.8,4.2,2.6,5.4,4.3c1.3,1.8,2.4,4.4,3.4,6.9c1,2.6,1.1,4.8,0.5,6.7c-0.6,1.9-1.4,3.6-2.3,5.2
		c0,0.1-0.1,0.1-0.1,0.2c-7.3,8.6-13.8,18-19.4,28c-5.6,10.1-11,20.8-16.8,32c-2.5,5.6-6.7,13.2-8.3,17.7c-0.8,2.3-4.2,8-6.9,14.9
		c-3.1,7.9-8,16.8-8.8,19.7c-0.6,2.2-2.6,5.5-0.9,6.4c1.9,1,5.6,0.8,9.3,0.6c2-0.1,3.9-0.1,5.5,0c5.3,0.5,14.6,0.8,21.4,1.6
		c2.4,0.3,6.2-0.1,8.2-0.3c1.3-0.1,9.7-1.2,13.2-2.2c0,0,0,0,0.1,0c16.3-3.5,31.7-8.2,46.3-13.5c14.6-5.3,29.5-11,44.9-17
		c16.6-7.4,30.7-15,42.2-23c11.5-8,22.7-17.8,33.6-29.3c10.2-11.8,16.8-23.3,19.7-34.5c2.9-11.2,2.7-21.6-0.5-31.2
		c-2.9-8.6-7.9-15.8-14.9-21.4c-7-5.6-15.3-10.1-24.7-13.4c-9.4-3.4-19.6-5.8-30.5-7.2c-10.9-1.4-21.7-2.2-32.4-2.4
		c-10.7-0.2-20.9,0-30.5,0.5c-9.6,0.5-17.6,0.9-24,1.2c-18.9,1.9-36.8,5.8-53.7,11.5c-17,5.8-33.6,14.1-49.9,24.9c0,0,0,0-0.1,0
		c-3.5,1.9-6.7,4.1-9.6,6.7c-2.9,2.6-5.8,5-8.6,7.2c-4.2,3.5-7.8,6.2-11,8.2c-3.2,1.9-6.3,3-9.3,3.4c-3.1,0.3-6.4-0.3-10.1-1.9
		c-3.5-1.5-7.5-3.9-12-7.1c-0.4-0.3-0.6-0.9-0.5-1.4c0.6-1.6,1.3-3.3,2.1-5.1c1-2.1,1.9-3.4,2.9-4.1c6.4-5.4,12.8-10.7,19.2-15.8
		c6.4-5.1,13.3-9.9,20.6-14.4c17.3-9.9,34.9-17.4,52.8-22.5c17.9-5.1,36.4-9.4,55.6-13c0,0,0.1,0,0.1,0c28.8-3.5,57.6-3.2,86.6,1
		c28.9,4.2,55.2,13.1,78.9,26.9c0,0,0.1,0,0.1,0c5.7,2.6,10.8,6.4,15.3,11.5c4.5,5.1,7.9,10.9,10.3,17.3c2.4,6.4,3.8,13,4.1,19.9
		C515.4,368.5,514.4,374.7,512.2,380.1z"/>
	<g id="XMLID_2_">
		<g id="XMLID_157_">
			<path id="XMLID_163_" class="st2" d="M254.5,504.3c-0.6-3.8-2.5-6.8-4-10.2c-1.9-4.4-1.8-9.4-2.2-14.2c-0.2-1.9-3.2-1.9-3,0
				c0.4,4.3,0.3,8.9,1.5,13c1.3,4.2,4.1,7.8,4.8,12.2C251.9,507,254.8,506.2,254.5,504.3L254.5,504.3z"/>
		</g>
	</g>
	<g id="XMLID_3_">
		<g id="XMLID_151_">
			<path id="XMLID_162_" class="st2" d="M249.1,501.4c-1.3-1.4-1.3-4-2-5.7c-0.7-1.7-1.6-3.3-2.6-4.9c-0.9,0.5-1.7,1-2.6,1.5
				c1.4,2,2.7,5.5,2.2,8.1c0.3-0.3,0.7-0.7,1-1c-0.1,0-0.2,0.1-0.2,0.1c0.4,0.1,0.8,0.1,1.2,0.2c-0.7-0.4-1.4-2.3-1.8-2.9
				c-0.6-1-1.2-2-1.8-3c-1-1.7-3.3-0.2-2.6,1.5c0.8,1.8,1.2,3.6,1.5,5.5c0.3,1.9,3.2,1.1,2.9-0.8c-0.3-2.2-0.9-4.2-1.8-6.3
				c-0.9,0.5-1.7,1-2.6,1.5c0.8,1.4,4.3,9.7,6.8,6.5c0.9-1.2,0.3-3.7,0-5c-0.3-2.1-1-4.1-2.3-5.9c-1.1-1.5-3.7-0.1-2.6,1.5
				c1.3,1.9,2.4,4,3,6.3c0.5,1.8,0.8,3.5,2.1,5C248.3,505,250.4,502.9,249.1,501.4L249.1,501.4z"/>
		</g>
	</g>
	<path id="XMLID_5_" class="st2" d="M805.8,675c-7,6.7-13.7,13.3-19.9,19.7c-6.2,6.4-12.6,11.6-19.2,15.6c-6.6,4-13.7,6.3-21.4,7
		c-7.7,0.6-16.5-1.6-26.4-6.7c-5.8-2.6-10.8-5.7-15.1-9.4c-4.3-3.7-7.3-8.9-8.9-15.6c-2.2-3.8-3.4-7.4-3.4-10.6
		c-2.6-20.5-3.8-41-3.6-61.7c0.2-20.6,2.5-42,7-64.1c2.6-13.4,5.3-26.6,8.2-39.6c2.9-13,6.1-25.8,9.6-38.6
		c1.9-7.4,4.1-14.7,6.5-22.1c2.4-7.4,4.4-14.2,6-20.6c0.3-1.9,1.3-4.8,2.9-8.6c1.6-3.8,3.2-8,4.8-12.5c1.6-4.5,3-9,4.3-13.4
		c1.3-4.5,1.9-8.6,1.9-12.5c-1,1.3-2.4,3.3-4.3,6c-1.9,2.7-3.9,5.5-6,8.4c-2.1,2.9-3.9,5.5-5.5,7.9c-1.6,2.4-2.6,4.1-2.9,5
		c-14.4,17.3-28.5,34.5-42.2,51.6c-13.8,17.1-27.4,34.2-40.8,51.1c-2.6,3.2-5.1,6.4-7.7,9.6c-2.6,3.2-5.3,5.9-8.2,8.2
		c-3.5,2.9-7.5,4.7-12,5.5c-4.5,0.8-8.8,0.6-13-0.7c-4.2-1.3-8-3.4-11.5-6.5c-3.5-3-6.1-7-7.7-11.8c-1-1.6-1.5-3.2-1.7-4.8
		c-0.2-1.6-0.2-3.2-0.2-4.8c0-4.8,0.3-10.1,1-15.8c0.6-5.8,1.3-11.4,1.9-16.8c0-2.9,0.1-6.2,0.2-9.8c0.2-3.7,0.4-7.4,0.7-11.3
		c0.3-3.8,0.6-7.5,1-11c0.3-3.5,0.8-6.6,1.4-9.1c0.3-1.3,0-1.4-1-0.5c-1,1-2.2,2.4-3.6,4.3c-1.4,1.9-2.9,3.8-4.3,5.8
		c-1.4,1.9-2.5,3.2-3.1,3.8c-4.2,8.3-8.6,16-13.2,23c-4.6,7-9.2,14.4-13.7,22.1c-9.3,14.1-18.2,26.4-26.6,37
		c-8.5,10.6-16.7,22.9-24.7,37c-1.6,2.6-3.5,5.5-5.8,8.9c-2.2,3.4-4.6,6.7-7,10.1c-2.4,3.4-5,6.5-7.7,9.4c-2.7,2.9-5.4,5-7.9,6.2
		c-2.9,1.3-5.3,2.3-7.2,3.1c-1.9,0.8-3.6,1.1-5,1c-1.4-0.2-3-0.9-4.6-2.2c-1.6-1.3-3.7-3.2-6.2-5.8c0-2.6,0.8-4.1,2.4-4.6
		c1.6-0.5,2.7-1,3.4-1.7c3.5-4.8,7-9.5,10.6-14.2c3.5-4.6,7-10,10.6-16.1c10.9-17.3,21.4-34.6,31.7-52.1
		c10.2-17.4,20.8-34.8,31.7-52.1c13.4-22.7,26.9-44.8,40.3-66.2c13.4-21.4,26.9-43.5,40.3-66.2c1-2.2,1.9-3.8,2.9-4.8
		c1-1,1.8-2.2,2.4-3.8c5.4-0.6,9.4,1.1,11.8,5.3c2.4,4.2,4.7,7.8,7,11c-0.3,4.5-1,8.4-1.9,11.8c-1,3.4-2.2,6.8-3.8,10.3
		c-3.8,4.8-6.8,10.4-8.9,16.8c-2.1,6.4-3.9,12.8-5.5,19.2c-2.2,9.3-4.8,19.3-7.7,30c-2.9,10.7-5.4,21.6-7.7,32.6
		c-2.2,11-3.8,21.9-4.6,32.6c-0.8,10.7-0.2,20.7,1.7,30c2.2,0.3,5.6-1.4,10.1-5.3c4.5-3.8,9.1-8.4,13.9-13.7
		c4.8-5.3,9.3-10.7,13.4-16.3c4.2-5.6,7.4-10,9.6-13.2c1-1,2.2-2.2,3.6-3.6c1.4-1.4,2.6-3,3.6-4.6c7.7-6.7,14.8-14.3,21.4-22.8
		c6.6-8.5,13-17.3,19.2-26.4c6.2-9.1,12.4-18.1,18.5-26.9c6.1-8.8,12.5-16.7,19.2-23.8c9.6-12.2,18.1-25.1,25.4-38.9
		c3.5-4.5,7.4-6.9,11.5-7.2c4.2-0.3,8.5-1,13-1.9c4.8,0,8.3,0.9,10.6,2.6c2.2,1.8,4.2,4.6,5.8,8.4c-3.5,10.2-7.4,20.6-11.5,31
		c-4.2,10.4-8,20.7-11.5,31c-6.4,15.7-12.5,31-18.2,46.1c-5.8,15-11.1,30.1-16.1,45.1c-5,15-9.4,30.4-13.4,46.1
		c-4,15.7-7.3,32.2-9.8,49.4c-1,5.8-1.9,12.1-2.9,19c-1,6.9-1.8,14-2.4,21.4c-0.6,7.4-1.1,14.6-1.4,21.6c-0.3,7-0.2,13.6,0.5,19.7
		c0,7.4,0.8,14.2,2.4,20.4c1.6,6.2,3.4,12.6,5.3,19c2.6,3.8,5.7,7,9.4,9.4c3.7,2.4,7.8,3.3,12.2,2.6c7.7-2.6,15.4-6.7,23.3-12.5
		c7.8-5.8,15.4-11.2,22.8-16.3c6.7-5.4,13.1-11,19.2-16.6c6.1-5.6,12.3-11.3,18.7-17l21.6-20.2c1.6,2.6,1,6.2-1.7,11
		c-2.7,4.8-6.3,10-10.8,15.6c-4.5,5.6-9.1,11.1-13.9,16.6C812,667.5,808.4,671.8,805.8,675z"/>
	<g id="XMLID_4_">
		<g id="XMLID_144_">
			<path id="XMLID_161_" class="st2" d="M250.6,500.4c-1.6-2.9-2.2-6.2-3.6-9.2c-0.8-1.8-3.4-0.2-2.6,1.5c1.4,3,2,6.3,3.6,9.2
				C248.9,503.6,251.5,502.1,250.6,500.4L250.6,500.4z"/>
		</g>
	</g>
	<g id="XMLID_10_">
		<g id="XMLID_138_">
			<path id="XMLID_156_" class="st2" d="M253.2,504.8c1.9,0,1.9-3,0-3C251.2,501.8,251.2,504.8,253.2,504.8L253.2,504.8z"/>
		</g>
	</g>
	<g id="XMLID_11_">
		<g id="XMLID_132_">
			<path id="XMLID_155_" class="st2" d="M248.3,486.4C248.3,486.4,248.3,486.4,248.3,486.4c0.5,0.1,0.7-0.7,0.2-0.7c0,0,0,0,0,0
				C248,485.6,247.8,486.3,248.3,486.4L248.3,486.4z"/>
		</g>
	</g>
	<g id="XMLID_14_">
		<g id="XMLID_126_">
			<path id="XMLID_149_" class="st2" d="M248.4,486.4C248.4,486.4,248.4,486.4,248.4,486.4c0.5,0,0.5-0.8,0-0.8c0,0,0,0,0,0
				C247.9,485.7,247.9,486.4,248.4,486.4L248.4,486.4z"/>
		</g>
	</g>
	<g id="XMLID_16_">
		<g id="XMLID_118_">
			<path id="XMLID_148_" class="st2" d="M248.5,486.5C248.5,486.5,248.5,486.5,248.5,486.5c0.5-0.2,0.3-0.9-0.2-0.7c0,0,0,0,0,0
				C247.8,485.9,248,486.6,248.5,486.5L248.5,486.5z"/>
		</g>
	</g>
	<g id="XMLID_37_">
		<g id="XMLID_111_">
			<path id="XMLID_143_" class="st2" d="M248.6,486.4C248.7,486.4,248.7,486.3,248.6,486.4c0.3-0.4-0.2-0.9-0.5-0.5c0,0,0,0,0,0
				C247.8,486.2,248.3,486.7,248.6,486.4L248.6,486.4z"/>
		</g>
	</g>
	<g id="XMLID_23_">
		<g id="XMLID_105_">
			<path id="XMLID_142_" class="st2" d="M247.2,487.5c1.9,0,1.9-3,0-3C245.2,484.5,245.2,487.5,247.2,487.5L247.2,487.5z"/>
		</g>
	</g>
	<g id="XMLID_29_">
		<g id="XMLID_99_">
			<path id="XMLID_137_" class="st2" d="M247.7,486.8c1,0,1-1.5,0-1.5C246.7,485.3,246.7,486.8,247.7,486.8L247.7,486.8z"/>
		</g>
	</g>
	<g id="XMLID_31_">
		<g id="XMLID_93_">
			<path id="XMLID_136_" class="st2" d="M247.9,486.8c1,0,1-1.5,0-1.5C246.9,485.3,246.9,486.8,247.9,486.8L247.9,486.8z"/>
		</g>
	</g>
	<g id="XMLID_43_">
		<g id="XMLID_87_">
			<path id="XMLID_131_" class="st2" d="M248,486.8c1,0,1-1.5,0-1.5C247.1,485.3,247.1,486.8,248,486.8L248,486.8z"/>
		</g>
	</g>
	<g id="XMLID_50_">
		<g id="XMLID_81_">
			<path id="XMLID_130_" class="st2" d="M248,486.7c1,0,1-1.5,0-1.5C247.1,485.2,247.1,486.7,248,486.7L248,486.7z"/>
		</g>
	</g>
	<g id="XMLID_51_">
		<g id="XMLID_74_">
			<path id="XMLID_125_" class="st2" d="M248,486.7c1,0,1-1.5,0-1.5C247.1,485.2,247.1,486.7,248,486.7L248,486.7z"/>
		</g>
	</g>
	<g id="XMLID_58_">
		<g id="XMLID_67_">
			<path id="XMLID_124_" class="st2" d="M248,486.7c1,0,1-1.5,0-1.5C247.1,485.2,247.1,486.7,248,486.7L248,486.7z"/>
		</g>
	</g>
	<g id="XMLID_65_">
		<g id="XMLID_60_">
			<path id="XMLID_117_" class="st2" d="M248.1,486.7c1,0,1-1.5,0-1.5C247.1,485.2,247.1,486.7,248.1,486.7L248.1,486.7z"/>
		</g>
	</g>
	<g id="XMLID_72_">
		<g id="XMLID_53_">
			<path id="XMLID_116_" class="st2" d="M248.1,486.7c1,0,1-1.5,0-1.5C247.1,485.2,247.1,486.7,248.1,486.7L248.1,486.7z"/>
		</g>
	</g>
	<g id="XMLID_79_">
		<g id="XMLID_48_">
			<path id="XMLID_110_" class="st2" d="M248.1,486.7c1,0,1-1.5,0-1.5C247.1,485.2,247.1,486.7,248.1,486.7L248.1,486.7z"/>
		</g>
	</g>
	<g id="XMLID_114_">
		<g id="XMLID_64_">
			<path id="XMLID_109_" class="st2" d="M251.9,503.6c0.1,0,0.1,0,0.2,0c-0.3,0-0.5,0-0.8,0c-0.3-0.1-0.3-0.1,0,0
				c0.1,0.1,0.2,0.1,0.2,0.2c0.1,0.1,0.3,0.2,0.4,0.2c0.6,0.5,1.5,0.6,2.1,0c0.5-0.5,0.6-1.6,0-2.1c-0.4-0.3-0.9-0.6-1.3-0.9
				c-0.5-0.3-1-0.3-1.6-0.2c-0.8,0.1-1.2,1.1-1,1.8C250.3,503.4,251.1,503.7,251.9,503.6L251.9,503.6z"/>
		</g>
	</g>
	<g id="XMLID_120_">
		<g id="XMLID_78_">
			<path id="XMLID_104_" class="st2" d="M250.7,502.8c0.2,0.2,0.4,0.4,0.5,0.6c0.5,0.6,1.6,0.5,2.1,0c0.6-0.6,0.5-1.5,0-2.1
				c-0.2-0.2-0.3-0.4-0.5-0.6c-0.6-0.6-1.5-0.6-2.1,0C250.2,501.3,250.1,502.3,250.7,502.8L250.7,502.8z"/>
		</g>
	</g>
	<g id="XMLID_121_">
		<g id="XMLID_80_">
			<path id="XMLID_92_" class="st2" d="M251.6,503.1C251.7,503.1,251.7,503.2,251.6,503.1c-0.1-0.1,0.1,0,0.1,0.1
				c0.2,0.2,0.5,0.4,0.7,0.6c0.7,0.4,1.7,0.1,2.1-0.5c0.4-0.7,0.1-1.6-0.5-2.1c0.2,0.1-0.1-0.1-0.1-0.1c-0.1-0.1-0.2-0.2-0.4-0.3
				c-0.3-0.2-0.6-0.4-1-0.5c-0.8-0.1-1.7,0.2-1.8,1C250.3,502,250.7,502.9,251.6,503.1L251.6,503.1z"/>
		</g>
	</g>
</g>
</svg>
