<?xml version="1.0" encoding="utf-8"?>
<!-- Generator: Adobe Illustrator 19.0.0, SVG Export Plug-In . SVG Version: 6.00 Build 0)  -->
<svg version="1.1" id="Layer_1" xmlns="http://www.w3.org/2000/svg" xmlns:xlink="http://www.w3.org/1999/xlink" x="0px" y="0px"
	 viewBox="-821.2 847.8 184.6 180" style="enable-background:new -821.2 847.8 184.6 180;" xml:space="preserve">
<style type="text/css">
	.st0{fill:#0C0824;}
	.st1{fill:#31C5F0;}
</style>
<path class="st0" d="M-813.5,855.5h169.2v164.6h-169.2V855.5z"/>
<path class="st1" d="M-813.5,855.5h169.2v164.6h-169.2V855.5z M-821.2,1027.8h184.6v-180h-184.6V1027.8z M-696.7,921.7
	c-6.1,0-8.1,3.1-8.1,5.6c0,2.8,1.4,4.7,9.5,8.9c12.1,5.8,15.8,11.5,15.8,19.7c0,12.3-9.4,18.9-22.1,18.9c-6.7,0-12.5-1.4-15.8-3.3
	c-0.6-0.2-0.6-0.6-0.6-1.2V959c0-0.8,0.4-1,0.9-0.6c4.8,3.1,10.4,4.5,15.5,4.5c6.1,0,8.6-2.6,8.6-6c0-2.8-1.8-5.2-9.5-9.2
	c-10.9-5.2-15.5-10.5-15.5-19.4c0-9.9,7.8-18.2,21.2-18.2c6.6,0,11.2,1,13.8,2.1c0.6,0.4,0.8,1,0.8,1.6v10.5c0,0.6-0.4,1-1.1,0.8
	C-686.7,923-691.7,921.7-696.7,921.7L-696.7,921.7z M-762.9,930.8c1.8,0.1,3.1,0.1,6.2,0.1c9,0,17.5-3.1,17.5-15.4
	c0-9.8-6.1-14.7-16.3-14.7c-3.1,0-6,0.1-7.4,0.2L-762.9,930.8L-762.9,930.8z M-776.6,890c0-0.6,1.1-0.9,1.7-0.9
	c4.9-0.2,12.2-0.4,19.8-0.4c21.3,0,29.6,11.7,29.6,26.6c0,19.5-14.2,27.9-31.6,27.9c-2.9,0-3.9-0.1-6-0.1v29.5
	c0,0.6-0.2,0.9-0.9,0.9h-11.8c-0.6,0-0.9-0.2-0.9-0.9L-776.6,890L-776.6,890z"/>
</svg>
