<?xml version="1.0" encoding="utf-8"?>
<!-- Generator: Adobe Illustrator 19.0.0, SVG Export Plug-In . SVG Version: 6.00 Build 0)  -->
<svg version="1.1" id="Layer_1" xmlns="http://www.w3.org/2000/svg" xmlns:xlink="http://www.w3.org/1999/xlink" x="0px" y="0px"
	 viewBox="-434.2 656.8 184.6 180" style="enable-background:new -434.2 656.8 184.6 180;" xml:space="preserve">
<style type="text/css">
	.st0{fill:url(#SVGID_1_);}
	.st1{fill:#31C5F0;}
</style>
<radialGradient id="SVGID_1_" cx="-1460.4021" cy="-526.4674" r="0.2357" gradientTransform="matrix(545.6736 0 0 528.3113 796532.125 278840.125)" gradientUnits="userSpaceOnUse">
	<stop  offset="0" style="stop-color:#34364E;stop-opacity:0.98"/>
	<stop  offset="1" style="stop-color:#0C0824"/>
</radialGradient>
<path class="st0" d="M-426.5,664.5h169.2v164.6h-169.2V664.5z"/>
<path class="st1" d="M-426.5,664.5h169.2v164.6h-169.2V664.5z M-434.2,836.8h184.6v-180h-184.6V836.8z M-309.7,730.7
	c-6.1,0-8.1,3.1-8.1,5.6c0,2.8,1.4,4.7,9.5,8.9c12.1,5.8,15.8,11.5,15.8,19.7c0,12.3-9.4,18.9-22.1,18.9c-6.7,0-12.5-1.4-15.8-3.3
	c-0.6-0.2-0.6-0.6-0.6-1.2V768c0-0.8,0.4-1,0.9-0.6c4.8,3.1,10.4,4.5,15.5,4.5c6.1,0,8.6-2.6,8.6-6c0-2.8-1.8-5.2-9.5-9.2
	c-10.9-5.2-15.5-10.5-15.5-19.4c0-9.9,7.8-18.2,21.2-18.2c6.6,0,11.2,1,13.8,2.1c0.6,0.4,0.8,1,0.8,1.6v10.5c0,0.6-0.4,1-1.1,0.8
	C-299.7,732-304.7,730.7-309.7,730.7L-309.7,730.7z M-375.9,739.8c1.8,0.1,3.1,0.1,6.2,0.1c9,0,17.5-3.1,17.5-15.4
	c0-9.8-6.1-14.7-16.3-14.7c-3.1,0-6,0.1-7.4,0.2L-375.9,739.8L-375.9,739.8z M-389.6,699c0-0.6,1.1-0.9,1.7-0.9
	c4.9-0.2,12.2-0.4,19.8-0.4c21.3,0,29.6,11.7,29.6,26.6c0,19.5-14.2,27.9-31.6,27.9c-2.9,0-3.9-0.1-6-0.1v29.5
	c0,0.6-0.2,0.9-0.9,0.9h-11.8c-0.6,0-0.9-0.2-0.9-0.9L-389.6,699L-389.6,699z"/>
</svg>
