<?xml version="1.0" encoding="utf-8"?>
<!-- Generator: Adobe Illustrator 19.0.0, SVG Export Plug-In . SVG Version: 6.00 Build 0)  -->
<svg version="1.1" id="Layer_1" xmlns="http://www.w3.org/2000/svg" xmlns:xlink="http://www.w3.org/1999/xlink" x="0px" y="0px"
	 viewBox="-331.3 188 184.6 180" style="enable-background:new -331.3 188 184.6 180;" xml:space="preserve">
<style type="text/css">
	.st0{fill:#2A0034;}
	.st1{fill:#EA77FF;}
</style>
<rect x="-323.6" y="195.7" class="st0" width="169.2" height="164.6"/>
<path class="st1" d="M-331.3,188v180h184.6V188H-331.3z M-323.6,195.7h169.2v164.6h-169.2V195.7z M-283.4,230.2
	c0-0.5,0.2-0.9,0.8-0.9c4.9-0.2,12.2-0.4,19.8-0.4c21.3,0,30.6,11.7,30.6,26.7c0,19.5-14.2,27.9-31.5,27.9c-2.9,0-3.9-0.2-6-0.2
	v29.5c0,0.6-0.2,0.9-0.9,0.9h-11.8c-0.6,0-0.9-0.2-0.9-0.9C-283.5,312.8-283.5,230.2-283.4,230.2z M-269.8,271
	c1.8,0.2,3.2,0.2,6.2,0.2c9,0,17.5-3.2,17.5-15.4c0-9.8-6-14.7-16.3-14.7c-3.1,0-6,0.2-7.4,0.2C-269.8,241.3-269.8,271-269.8,271z
	 M-220.5,264c0-0.9,0-3.2-0.4-7.5c0-0.6,0.1-0.8,0.6-1c4.7-1.9,15.7-5.3,28.2-5.3c0.6,0,0.9,0.2,0.9,0.8v11.2c0,0.6-0.2,0.8-0.8,0.8
	c-4.8-0.2-11.8,0.4-14.5,1.5v48.5c0,0.6-0.2,0.9-0.9,0.9h-12.1c-0.6,0-0.9-0.2-0.9-0.9V264L-220.5,264z"/>
</svg>
