<?xml version="1.0" encoding="utf-8"?>
<!-- Generator: Adobe Illustrator 19.0.0, SVG Export Plug-In . SVG Version: 6.00 Build 0)  -->
<svg version="1.1" id="Layer_2" xmlns="http://www.w3.org/2000/svg" xmlns:xlink="http://www.w3.org/1999/xlink" x="0px" y="0px"
	 viewBox="0 0 184.6 180" style="enable-background:new 0 0 184.6 180;" xml:space="preserve">
<style type="text/css">
	.st0{fill:#E579FF;}
</style>
<g>
	<g>
		<defs>
			<polyline id="SVGID_1_" points="176.9,7.7 7.7,7.7 7.7,172.3 176.9,172.3 176.9,7.7 			"/>
		</defs>
		<clipPath id="SVGID_2_">
			<use xlink:href="#SVGID_1_"  style="overflow:visible;"/>
		</clipPath>
		<g style="clip-path:url(#SVGID_2_);">
			
				<image style="overflow:visible;" width="963" height="865" xlink:href="F8DA7FFD.jpg"  transform="matrix(0.1528 0 0 -0.1528 7.5183 172.5103)">
			</image>
		</g>
		<g style="clip-path:url(#SVGID_2_);">
			
				<image style="overflow:visible;" width="150" height="1080" xlink:href="F8DA7FFF.jpg"  transform="matrix(0.1528 0 0 -0.1528 154.192 172.5103)">
			</image>
		</g>
		<g style="clip-path:url(#SVGID_2_);">
			
				<image style="overflow:visible;" width="963" height="218" xlink:href="F8DA7FFA.jpg"  transform="matrix(0.1528 0 0 -0.1528 7.5183 40.8095)">
			</image>
		</g>
	</g>
	<path class="st0" d="M7.7,7.7h169.2v164.6H7.7V7.7z M0,180h184.6V0H0V180z M110.8,76c0-0.9,0-3.2-0.4-7.5c0-0.6,0.1-0.8,0.6-1
		c4.7-1.9,15.7-5.3,28.2-5.3c0.6,0,0.9,0.2,0.9,0.8v11.2c0,0.6-0.2,0.8-0.8,0.8c-4.8-0.2-11.8,0.4-14.5,1.5v48.5
		c0,0.6-0.2,0.9-0.9,0.9h-12.1c-0.6,0-0.9-0.2-0.9-0.9L110.8,76L110.8,76z M61.5,83c1.8,0.2,3.2,0.2,6.2,0.2c9,0,17.5-3.2,17.5-15.4
		c0-9.8-6-14.7-16.3-14.7c-3.1,0-6,0.2-7.4,0.2V83z M47.9,42.2c0-0.5,0.2-0.9,0.8-0.9c4.9-0.2,12.2-0.4,19.8-0.4
		c21.3,0,30.6,11.7,30.6,26.7c0,19.5-14.2,27.9-31.5,27.9c-2.9,0-3.9-0.2-6-0.2v29.5c0,0.6-0.2,0.9-0.9,0.9H48.8
		c-0.6,0-0.9-0.2-0.9-0.9L47.9,42.2L47.9,42.2z"/>
</g>
</svg>
