<?xml version="1.0" encoding="utf-8"?>
<!-- Generator: Adobe Illustrator 19.0.0, SVG Export Plug-In . SVG Version: 6.00 Build 0)  -->
<svg version="1.1" id="Layer_1" xmlns="http://www.w3.org/2000/svg" xmlns:xlink="http://www.w3.org/1999/xlink" x="0px" y="0px"
	 viewBox="-415 217 128 128" style="enable-background:new -415 217 128 128;" xml:space="preserve">
<style type="text/css">
	.st0{fill:#61DAFB;}
</style>
<g>
	<circle class="st0" cx="-351" cy="281" r="11.4"/>
	<path class="st0" d="M-307.7,262.2c-2.2-0.8-4.5-1.6-6.9-2.3c0.6-2.4,1.1-4.8,1.5-7.1c2.1-13.2-0.2-22.5-6.6-26.1
		c-1.9-1.1-4-1.6-6.4-1.6c-7,0-15.9,5.2-24.9,13.9c-9-8.7-17.9-13.9-24.9-13.9c-2.4,0-4.5,0.5-6.4,1.6c-6.4,3.7-8.7,13-6.6,26.1
		c0.4,2.3,0.9,4.7,1.5,7.1c-2.4,0.7-4.7,1.4-6.9,2.3c-12.5,4.8-19.3,11.4-19.3,18.8s6.9,14,19.3,18.8c2.2,0.8,4.5,1.6,6.9,2.3
		c-0.6,2.4-1.1,4.8-1.5,7.1c-2.1,13.2,0.2,22.5,6.6,26.1c1.9,1.1,4,1.6,6.4,1.6c7.1,0,16-5.2,24.9-13.9c9,8.7,17.9,13.9,24.9,13.9
		c2.4,0,4.5-0.5,6.4-1.6c6.4-3.7,8.7-13,6.6-26.1c-0.4-2.3-0.9-4.7-1.5-7.1c2.4-0.7,4.7-1.4,6.9-2.3c12.5-4.8,19.3-11.4,19.3-18.8
		S-295.2,267-307.7,262.2z M-322.5,231.7c4.1,2.4,5.5,9.8,3.8,20.3c-0.3,2.1-0.8,4.3-1.4,6.6c-5.2-1.2-10.7-2-16.5-2.5
		c-3.4-4.8-6.9-9.1-10.4-13c7.4-7.3,14.9-12.3,21-12.3C-324.7,230.8-323.5,231.1-322.5,231.7z M-333.7,291c-1.8,3.2-3.9,6.4-6.1,9.6
		c-3.7,0.3-7.4,0.4-11.2,0.4c-3.9,0-7.6-0.1-11.2-0.4c-2.2-3.2-4.2-6.4-6-9.6c-1.9-3.3-3.7-6.7-5.3-10c1.6-3.3,3.4-6.7,5.3-10
		c1.8-3.2,3.9-6.4,6.1-9.6c3.7-0.3,7.4-0.4,11.2-0.4c3.9,0,7.6,0.1,11.2,0.4c2.2,3.2,4.2,6.4,6,9.6c1.9,3.3,3.7,6.7,5.3,10
		C-330.1,284.3-331.8,287.6-333.7,291z M-325.4,287.7c1.5,3.5,2.7,6.9,3.8,10.3c-3.4,0.8-7,1.4-10.8,1.9c1.2-1.9,2.5-3.9,3.6-6
		C-327.6,291.8-326.5,289.7-325.4,287.7z M-351,314.8c-2.4-2.6-4.7-5.4-6.9-8.3c2.3,0.1,4.6,0.2,6.9,0.2c2.3,0,4.6-0.1,6.9-0.2
		C-346.3,309.4-348.6,312.2-351,314.8z M-369.6,299.8c-3.8-0.5-7.4-1.1-10.8-1.9c1.1-3.3,2.3-6.8,3.8-10.3c1.1,2,2.2,4.1,3.4,6.1
		C-372,295.9-370.8,297.8-369.6,299.8z M-376.6,274.3c-1.5-3.5-2.7-6.9-3.8-10.3c3.4-0.8,7-1.4,10.8-1.9c-1.2,1.9-2.5,3.9-3.6,6
		C-374.4,270.2-375.5,272.3-376.6,274.3z M-351,247.2c2.4,2.6,4.7,5.4,6.9,8.3c-2.3-0.1-4.6-0.2-6.9-0.2c-2.3,0-4.6,0.1-6.9,0.2
		C-355.7,252.6-353.4,249.8-351,247.2z M-328.8,268.2l-3.6-6c3.8,0.5,7.4,1.1,10.8,1.9c-1.1,3.3-2.3,6.8-3.8,10.3
		C-326.5,272.3-327.6,270.2-328.8,268.2z M-383.3,252c-1.7-10.5-0.3-17.9,3.8-20.3c1-0.6,2.2-0.9,3.5-0.9c6,0,13.5,4.9,21,12.3
		c-3.5,3.8-7,8.2-10.4,13c-5.8,0.5-11.3,1.4-16.5,2.5C-382.5,256.3-382.9,254.1-383.3,252z M-408,281c0-4.7,5.7-9.7,15.7-13.4
		c2-0.8,4.2-1.5,6.4-2.1c1.6,5,3.6,10.3,6,15.6c-2.4,5.3-4.5,10.5-6,15.5C-399.7,292.6-408,286.6-408,281z M-379.5,330.3
		c-4.1-2.4-5.5-9.8-3.8-20.3c0.3-2.1,0.8-4.3,1.4-6.6c5.2,1.2,10.7,2,16.5,2.5c3.4,4.8,6.9,9.1,10.4,13c-7.4,7.3-14.9,12.3-21,12.3
		C-377.3,331.2-378.5,330.9-379.5,330.3z M-318.7,310c1.7,10.5,0.3,17.9-3.8,20.3c-1,0.6-2.2,0.9-3.5,0.9c-6,0-13.5-4.9-21-12.3
		c3.5-3.8,7-8.2,10.4-13c5.8-0.5,11.3-1.4,16.5-2.5C-319.5,305.7-319.1,307.9-318.7,310z M-309.7,294.4c-2,0.8-4.2,1.5-6.4,2.1
		c-1.6-5-3.6-10.3-6-15.6c2.4-5.3,4.5-10.5,6-15.5c13.8,4,22.1,10,22.1,15.6C-294,285.7-299.8,290.7-309.7,294.4z"/>
</g>
</svg>
