<?xml version="1.0" encoding="utf-8"?>
<!-- Generator: Adobe Illustrator 19.0.0, SVG Export Plug-In . SVG Version: 6.00 Build 0)  -->
<svg version="1.1" id="e0c1ea27-b4e7-4ca1-b144-c0c936b4df46"
	 xmlns="http://www.w3.org/2000/svg" xmlns:xlink="http://www.w3.org/1999/xlink" x="0px" y="0px" viewBox="-59 -83.8 840 726.8"
	 style="enable-background:new -59 -83.8 840 726.8;" xml:space="preserve">
<style type="text/css">
	.st0{opacity:0.8;}
	.st1{fill:url(#SVGID_1_);}
	.st2{fill:#6C63FF;}
	.st3{opacity:0.1;fill:#FFFFFF;enable-background:new    ;}
	.st4{opacity:0.2;fill:#6C63FF;enable-background:new    ;}
	.st5{opacity:0.3;}
	.st6{fill:url(#SVGID_2_);}
	.st7{fill:#FFFFFF;}
	.st8{opacity:0.2;enable-background:new    ;}
	.st9{fill:#E0E0E0;}
	.st10{fill:url(#SVGID_3_);}
	.st11{opacity:0.1;enable-background:new    ;}
	.st12{fill:url(#SVGID_4_);}
	.st13{opacity:5.000000e-002;enable-background:new    ;}
	.st14{opacity:0.5;fill:#4D8AF0;enable-background:new    ;}
	.st15{opacity:0.5;}
	.st16{fill:#47E6B1;}
	.st17{opacity:0.5;fill:#F55F44;enable-background:new    ;}
</style>
<title>taken</title>
<g class="st0">
	
		<linearGradient id="SVGID_1_" gradientUnits="userSpaceOnUse" x1="373" y1="396.38" x2="373" y2="623.3" gradientTransform="matrix(1 0 0 -1 0 558.3)">
		<stop  offset="0" style="stop-color:#808080;stop-opacity:0.25"/>
		<stop  offset="0.54" style="stop-color:#808080;stop-opacity:0.12"/>
		<stop  offset="1" style="stop-color:#808080;stop-opacity:0.1"/>
	</linearGradient>
	<ellipse class="st1" cx="373" cy="48.5" rx="146.5" ry="113.5"/>
</g>
<ellipse class="st2" cx="373" cy="48.5" rx="143.2" ry="110.9"/>
<path class="st3" d="M252.9,60.8c0-61.3,64.1-110.9,143.2-110.9c24.6-0.1,48.9,4.9,71.3,14.7c-25.2-17-58.1-27.3-94.1-27.3
	c-79.1,0-143.2,49.7-143.2,110.9c0,41.1,28.9,77.1,71.8,96.2C271.9,124.1,252.9,94.2,252.9,60.8z"/>
<polygon class="st4" points="373,93.1 531.8,368 690.5,643 373,643 55.5,643 214.2,368 "/>
<g class="st5">
	
		<linearGradient id="SVGID_2_" gradientUnits="userSpaceOnUse" x1="365.1017" y1="-1259.3455" x2="365.1017" y2="-1073.8829" gradientTransform="matrix(0.9478 0.319 0.319 -0.9478 388.2006 -764.8581)">
		<stop  offset="0" style="stop-color:#808080;stop-opacity:0.25"/>
		<stop  offset="0.54" style="stop-color:#808080;stop-opacity:0.12"/>
		<stop  offset="1" style="stop-color:#808080;stop-opacity:0.1"/>
	</linearGradient>
	<path class="st6" d="M410.7,482.4l12.3-36.6c8.7-26.2-0.7-54.9-23.2-70.9l0.1-0.1c-4.9-3.4-10.2-6.1-15.8-8l0,0l-0.2,0l-0.2-0.1
		l0,0c-5.5-1.8-11.1-2.9-16.9-3.2c-2-0.1-4.1-0.1-6.1,0c-3.5,0.2-7,0.7-10.5,1.5c-1,0.2-2,0.5-2.9,0.7s-1.9,0.6-2.9,0.9
		c-1.9,0.6-3.8,1.3-5.6,2.2c-0.9,0.4-1.8,0.8-2.7,1.3c-2.7,1.3-5.3,2.9-7.8,4.6c-0.8,0.6-1.6,1.2-2.4,1.8
		c-9.9,7.5-17.3,17.8-21.2,29.6l-19.4,57.5c-3.1,9-4,18.7-2.7,28.1c0.2,1.5,0.4,2.9,0.7,4.3c0.3,1.4,0.6,2.8,1,4.2
		c0.3,0.9,0.5,1.9,0.8,2.8c0.5,1.4,1,2.7,1.5,4.1c0.4,0.9,0.8,1.8,1.2,2.7c0.8,1.8,1.7,3.5,2.7,5.1c1,1.7,2,3.3,3.2,4.9
		c0.8,1.2,1.7,2.3,2.7,3.5c1.2,1.5,2.5,2.9,3.9,4.3c6,6,13.1,10.7,21,13.9l0,0l0,0l0.3,0.1c0.4-0.8,0.9-1.5,1.4-2.2
		c3-4.1,8.2-7,13.2-5.9c0.4,0.1,0.7,0.2,1.1,0.3c2.5,0.9,5,2.5,7.4,3.3c1.8,0.8,3.8,0.8,5.6-0.1c4.8-2.6,3-10.8,7.2-14.3
		c0.2-0.2,0.4-0.3,0.6-0.5l-0.2-0.2c3.2-2,7.7-0.7,11.4,0.6c4,1.4,9.2,2.3,12-0.9c1.9-2.2,1.8-5.7,3.5-8c2.1-2.7,6-3,9.4-2.5
		c1.8,0.3,12.8,13,21.4,8.8C402,508.1,409.6,485.6,410.7,482.4z"/>
</g>
<path class="st7" d="M324.2,536.4c2.9-4,7.9-6.8,12.7-5.7s9.3,5.7,13.6,3.4c4.7-2.5,3-10.4,7-13.8c3.1-2.7,7.9-1.3,11.8,0
	s8.9,2.3,11.5-0.9c1.8-2.2,1.7-5.5,3.4-7.7c2-2.6,5.8-2.9,9.1-2.4c1.7,0.3,12.4,12.6,20.6,8.5c-13.3-11.4-6-33.1-5-36.2l11.9-35.3
	c10.5-31.5-6.4-65.6-37.9-76.3l0,0c-31.5-10.5-65.6,6.4-76.3,37.9L288,463.3c-10.1,30.3,5.2,63.3,34.8,75.2
	C323.2,537.7,323.7,537,324.2,536.4z"/>
<circle class="st8" cx="346.4" cy="402.3" r="6.5"/>
<circle class="st8" cx="383.4" cy="414.7" r="6.5"/>
<ellipse transform="matrix(-0.9478 -0.319 0.319 -0.9478 556.3654 957.5035)" class="st9" cx="356.6" cy="433.2" rx="6.5" ry="9.8"/>
<circle class="st7" cx="493.6" cy="403.7" r="9.8"/>
<circle class="st7" cx="524.5" cy="388.4" r="4.9"/>
<g class="st0">
	
		<linearGradient id="SVGID_3_" gradientUnits="userSpaceOnUse" x1="373" y1="373.59" x2="373" y2="393.12" gradientTransform="matrix(1 0 0 -1 0 558.3)">
		<stop  offset="0" style="stop-color:#808080;stop-opacity:0.25"/>
		<stop  offset="0.54" style="stop-color:#808080;stop-opacity:0.12"/>
		<stop  offset="1" style="stop-color:#808080;stop-opacity:0.1"/>
	</linearGradient>
	<rect x="275.4" y="165.2" class="st10" width="195.3" height="19.5"/>
</g>
<rect x="275.4" y="161.9" class="st9" width="195.3" height="19.5"/>
<path class="st11" d="M510.5,15.6c1.9,7.2,2.8,14.5,2.8,21.9c0,61.3-64.1,110.9-143.2,110.9c-64.7,0-119.4-33.2-137.1-78.9
	c13.1,50.8,71,89,140.4,89c79.1,0,143.2-49.7,143.2-110.9C516.6,36.7,514.5,25.8,510.5,15.6z"/>
<g class="st0">
	
		<linearGradient id="SVGID_4_" gradientUnits="userSpaceOnUse" x1="373" y1="384.06" x2="373" y2="538.8801" gradientTransform="matrix(1 0 0 -1 0 558.3)">
		<stop  offset="0" style="stop-color:#808080;stop-opacity:0.25"/>
		<stop  offset="0.54" style="stop-color:#808080;stop-opacity:0.12"/>
		<stop  offset="1" style="stop-color:#808080;stop-opacity:0.1"/>
	</linearGradient>
	<ellipse class="st12" cx="373" cy="96.8" rx="296.2" ry="77.4"/>
</g>
<path class="st7" d="M373,22C214.8,22,86.6,55.5,86.6,96.8h572.8C659.4,55.5,531.2,22,373,22z"/>
<path class="st7" d="M373,171.7c158.2,0,286.4-33.5,286.4-74.9H86.6C86.6,138.2,214.8,171.7,373,171.7z"/>
<path class="st13" d="M373,171.7c158.2,0,286.4-33.5,286.4-74.9H86.6C86.6,138.2,214.8,171.7,373,171.7z"/>
<path class="st13" d="M253.5,77.3h239c9.5,0,17.2,7.7,17.2,17.2v4.6c0,9.5-7.7,17.2-17.2,17.2h-239c-9.5,0-17.2-7.7-17.2-17.2v-4.6
	C236.3,85,244,77.3,253.5,77.3z"/>
<path class="st14" d="M74.9-26c-1.7-0.8-2.6-2.7-2-4.4c0-0.1,0.1-0.3,0.1-0.4l0,0c0.1-1-0.7-1.9-1.7-2c-0.6,0-1.2,0.2-1.6,0.7l0,0
	c-0.1,0.1-0.1,0.2-0.2,0.4c-0.8,1.7-2.7,2.6-4.4,2c-0.1,0-0.3-0.1-0.4-0.1l0,0c-1-0.1-1.9,0.7-2,1.7c0,0.6,0.2,1.2,0.7,1.6l0,0
	c0.1,0.1,0.2,0.1,0.4,0.2c1.7,0.8,2.6,2.7,2,4.4c0,0.1-0.1,0.3-0.1,0.4l0,0c-0.1,1,0.7,1.9,1.7,2c0.6,0,1.2-0.2,1.6-0.7l0,0
	c0.1-0.1,0.1-0.2,0.2-0.4c0.8-1.7,2.7-2.6,4.4-2c0.1,0,0.3,0.1,0.4,0.1l0,0c1,0.1,1.9-0.7,2-1.7c0-0.6-0.2-1.2-0.7-1.6l0,0
	C75.1-25.9,75-26,74.9-26z"/>
<path class="st14" d="M583.9,280c-1.7-0.8-2.6-2.7-2-4.4c0-0.1,0.1-0.3,0.1-0.4l0,0c0.1-1-0.7-1.9-1.7-2c-0.6,0-1.2,0.2-1.6,0.7l0,0
	c-0.1,0.1-0.1,0.2-0.2,0.4c-0.8,1.7-2.7,2.6-4.4,2c-0.1,0-0.3-0.1-0.4-0.1l0,0c-1-0.1-1.9,0.7-2,1.7c0,0.6,0.2,1.2,0.7,1.6l0,0
	c0.1,0.1,0.2,0.1,0.4,0.2c1.7,0.8,2.6,2.7,2,4.4c0,0.1-0.1,0.3-0.1,0.4l0,0c-0.1,1,0.7,1.9,1.7,2c0.6,0,1.2-0.2,1.6-0.7l0,0
	c0.1-0.1,0.1-0.2,0.2-0.4c0.8-1.7,2.7-2.6,4.4-2c0.1,0,0.3,0.1,0.4,0.1l0,0c1,0.1,1.9-0.7,2-1.7c0-0.6-0.2-1.2-0.7-1.6l0,0
	C584.1,280.1,584,280,583.9,280z"/>
<path class="st14" d="M21.9,422c-1.7-0.8-2.6-2.7-2-4.4c0-0.1,0.1-0.3,0.1-0.4l0,0c0.1-1-0.7-1.9-1.7-2c-0.6,0-1.2,0.2-1.6,0.7l0,0
	c-0.1,0.1-0.1,0.2-0.2,0.4c-0.8,1.7-2.7,2.6-4.4,2c-0.1,0-0.3-0.1-0.4-0.1l0,0c-1-0.1-1.9,0.7-2,1.7c0,0.6,0.2,1.2,0.7,1.6l0,0
	c0.1,0.1,0.2,0.1,0.4,0.2c1.7,0.8,2.6,2.7,2,4.4c0,0.1-0.1,0.3-0.1,0.4l0,0c-0.1,1,0.7,1.9,1.7,2c0.6,0,1.2-0.2,1.6-0.7l0,0
	c0.1-0.1,0.1-0.2,0.2-0.4c0.8-1.7,2.7-2.6,4.4-2c0.1,0,0.3,0.1,0.4,0.1l0,0c1,0.1,1.9-0.7,2-1.7c0-0.6-0.2-1.2-0.7-1.6l0,0
	C22.1,422.1,22,422,21.9,422z"/>
<path class="st14" d="M-33.1,91c-1.7-0.8-2.6-2.7-2-4.4c0-0.1,0.1-0.3,0.1-0.4l0,0c0.1-1-0.7-1.9-1.7-2c-0.6,0-1.2,0.2-1.6,0.7l0,0
	c-0.1,0.1-0.1,0.2-0.2,0.4c-0.8,1.7-2.7,2.6-4.4,2c-0.1,0-0.3-0.1-0.4-0.1l0,0c-1-0.1-1.9,0.7-2,1.7c0,0.6,0.2,1.2,0.7,1.6l0,0
	c0.1,0.1,0.2,0.1,0.4,0.2c1.7,0.8,2.6,2.7,2,4.4c0,0.1-0.1,0.3-0.1,0.4l0,0c-0.1,1,0.7,1.9,1.7,2c0.6,0,1.2-0.2,1.6-0.7l0,0
	c0.1-0.1,0.1-0.2,0.2-0.4c0.8-1.7,2.7-2.6,4.4-2c0.1,0,0.3,0.1,0.4,0.1l0,0c1,0.1,1.9-0.7,2-1.7c0-0.6-0.2-1.2-0.7-1.6l0,0
	C-32.9,91.1-33,91-33.1,91z"/>
<path class="st14" d="M573.9-77c-1.7-0.8-2.6-2.7-2-4.4c0-0.1,0.1-0.3,0.1-0.4l0,0c0.1-1-0.7-1.9-1.7-2c-0.6,0-1.2,0.2-1.6,0.7l0,0
	c-0.1,0.1-0.1,0.2-0.2,0.4c-0.8,1.7-2.7,2.6-4.4,2c-0.1,0-0.3-0.1-0.4-0.1l0,0c-1-0.2-2,0.4-2.2,1.4c-0.2,0.8,0.2,1.6,0.9,2l0,0
	c0.1,0.1,0.2,0.1,0.4,0.2c1.7,0.8,2.6,2.7,2,4.4c0,0.1-0.1,0.3-0.1,0.4l0,0c-0.1,1,0.6,1.9,1.6,2c0.7,0.1,1.4-0.3,1.7-0.8l0,0
	c0.1-0.1,0.1-0.2,0.2-0.4c0.8-1.7,2.7-2.6,4.4-2c0.1,0,0.3,0.1,0.4,0.1l0,0c1,0.1,1.9-0.7,2-1.7c0-0.6-0.2-1.2-0.7-1.6l0,0
	C574.2-76.9,574-77,573.9-77z"/>
<g class="st15">
	<rect x="51" y="174" class="st16" width="3" height="17"/>
	<rect x="44" y="181" class="st16" width="17" height="3"/>
</g>
<g class="st15">
	<rect x="771" y="94" class="st16" width="3" height="17"/>
	<rect x="764" y="101" class="st16" width="17" height="3"/>
</g>
<g class="st15">
	<rect x="671" y="373" class="st16" width="3" height="17"/>
	<rect x="664" y="380" class="st16" width="17" height="3"/>
</g>
<circle class="st17" cx="664" cy="-2" r="6"/>
<circle class="st17" cx="-53" cy="-71" r="6"/>
<circle class="st17" cx="127" cy="274" r="6"/>
</svg>
