<?xml version="1.0" encoding="utf-8"?>
<!-- Generator: Adobe Illustrator 19.0.0, SVG Export Plug-In . SVG Version: 6.00 Build 0)  -->
<svg version="1.1" id="Layer_1" xmlns="http://www.w3.org/2000/svg" xmlns:xlink="http://www.w3.org/1999/xlink" x="0px" y="0px"
	 viewBox="-12.1 127.6 124.2 124.6" style="enable-background:new -12.1 127.6 124.2 124.6;" xml:space="preserve">
<style type="text/css">
	.st0{fill:#0087BE;}
</style>
<path class="st0" d="M50.1,252.2c34.3-0.1,62-27.9,62-62.3c0-33.8-27.6-61.7-60.6-62.3c-34.6-0.6-63.6,27.5-63.6,61.6
	C-12.1,224.3,15.5,252.3,50.1,252.2z M50,130.6c32.9,0,59.1,26.7,59.1,60.3c0,31.7-26.9,58.2-59.1,58.2c-32.8,0-59.1-26.6-59.1-59.6
	C-9.1,157.3,17.7,130.6,50,130.6z M25.2,161.9c0.5,1.8-1,2.4-2.6,2.5c-1.7,0.1-3.4,0.3-5.3,0.4c6.5,19.2,12.8,38.2,19.3,57.6
	c0.5-0.8,0.7-1,0.7-1.2c3.6-10.7,7.2-21.4,10.7-32.1c0.3-1,0.2-2.3-0.2-3.3c-1.8-5.3-4.1-10.5-5.7-15.9c-1.1-3.7-2.6-6.1-6.9-5.6
	c-0.7,0.1-1.6-1.5-2.5-2.3c1-0.6,2-1.7,3-1.7c8.9-0.1,17.7-0.1,26.6,0c1,0,2,1.2,3,1.8c-0.9,0.8-1.6,2-2.7,2.3
	c-1.7,0.5-3.5,0.4-5.5,0.6c6.5,19.2,12.8,38.1,19.3,57.6c2.9-9.7,5.7-18.7,8.3-27.6c2.4-8,1-15.5-3.3-22.5c-1.3-2.1-2.9-4.2-3.6-6.5
	c-0.8-2.6-1.5-5.6-1.1-8.3c0.7-4.5,4.2-6.7,8.8-7.1c-25.4-23.6-65.3-15.1-80,10.5c5.7-0.3,11.1-0.6,16.5-0.7
	C23.2,160.2,24.9,161.1,25.2,161.9L25.2,161.9z M35.3,239.9c-0.1,0.3-0.1,0.7-0.2,1.3c10.9,3,21.7,2.8,32.7-0.9l-16.8-46
	C45.6,209.9,40.4,224.9,35.3,239.9z M26.8,237.8L1.5,168.4C-9.9,190.7-1.2,224.7,26.8,237.8z M103.2,193.2c0.8-10.5-2.8-25.1-6-27.1
	c-0.3,3.9-0.1,8.2-1.2,12.1c-2.6,9.3-5.8,18.3-8.9,27.5c-3.3,9.9-6.8,19.8-10.3,29.7C93,225.8,101.8,211.7,103.2,193.2z"/>
</svg>
