<?xml version="1.0" encoding="utf-8"?>
<!-- Generator: Adobe Illustrator 19.0.0, SVG Export Plug-In . SVG Version: 6.00 Build 0)  -->
<svg version="1.1" id="ps_x5F_cc_x5F_app_x5F_RGB.svg"
	 xmlns="http://www.w3.org/2000/svg" xmlns:xlink="http://www.w3.org/1999/xlink" x="0px" y="0px" viewBox="1927.7 190 184.6 180"
	 style="enable-background:new 1927.7 190 184.6 180;" xml:space="preserve">
<style type="text/css">
	.st0{fill:#2E001E;}
	.st1{fill:#FF2BC2;}
</style>
<path class="st0" d="M1935.4,197.7h169.2v164.6h-169.2V197.7z"/>
<path class="st1" d="M1927.7,190v180h184.6V190H1927.7z M1935.4,197.7h169.2v164.6h-169.2V197.7z"/>
<path class="st1" d="M2061.8,265.6c-1.2-0.5-2.6-0.8-4.5-0.8c-9.7,0-16.2,7.5-16.2,19.8c0,14.2,6.6,19.8,15.2,19.8
	c1.8,0,3.8-0.2,5.3-0.8L2061.8,265.6L2061.8,265.6z M2027.3,285.3c0-17.9,11.5-31.9,30.5-31.9c1.6,0,2.5,0,4,0.2v-20
	c0-0.5,0.4-0.8,0.8-0.8h12.4c0.6,0,0.8,0.2,0.8,0.6v70.3c0,2.1,0,4.7,0.4,7.5c0,0.5,0,0.6-0.5,0.8c-6.5,3.1-13.2,4.5-19.7,4.5
	C2039.2,316.5,2027.3,306.2,2027.3,285.3L2027.3,285.3z M2001.1,272.8l21.5,41.8c0.4,0.6,0.2,1.2-0.5,1.2h-13.4
	c-0.8,0-1.2-0.2-1.6-1c-4.9-10.2-9.9-20.7-15.1-31.6h-0.2c-4.6,10.3-9.7,21.5-14.6,31.7c-0.4,0.6-0.8,0.8-1.4,0.8h-12.8
	c-0.8,0-0.8-0.6-0.5-1.1l21.1-40.5l-20.4-40.3c-0.5-0.6,0-1.2,0.5-1.2h13.2c0.8,0,1.2,0.2,1.4,0.8c4.8,10.2,9.8,20.3,14.4,30.6h0.2
	c4.5-10.2,9.4-20.4,14.1-30.5c0.4-0.6,0.6-1,1.4-1h12.4c0.6,0,0.8,0.5,0.5,1.2L2001.1,272.8L2001.1,272.8z"/>
</svg>
